<?xml version="1.0" encoding="utf-8"?>
<!-- Generator: Adobe Illustrator 19.0.0, SVG Export Plug-In . SVG Version: 6.00 Build 0)  -->
<svg version="1.1" id="Layer_1" xmlns="http://www.w3.org/2000/svg" xmlns:xlink="http://www.w3.org/1999/xlink" x="0px" y="0px"
	 viewBox="0 0 14.3 17" style="enable-background:new 0 0 14.3 17;" xml:space="preserve">
<style type="text/css">
	.st0{fill:#9E7B56;}
</style>
<g id="XMLID_4386_">
	<path id="XMLID_4387_" class="st0" d="M4.6,13.3l5.8-10c0,0-0.2-0.2-0.5-0.2S9.5,3.3,9.5,3.3l-5.3,9.3c0,0-0.1,0.3,0,0.5
		C4.3,13.4,4.6,13.3,4.6,13.3z"/>
</g>
<path id="XMLID_4390_" class="st0" d="M3.9,3.4c-1.2,0-2.3,1.1-2.3,3c0,1.9,1.1,2.9,2.2,2.9c1.2,0,2.3-1,2.3-3
	C6.1,4.4,5.3,3.4,3.9,3.4z M3.8,8.5c-0.8,0-1.2-1-1.2-2.2S3,4,3.8,4C4.7,4,5,5,5,6.3C5,7.5,4.6,8.5,3.8,8.5z"/>
<path id="XMLID_4384_" class="st0" d="M10.2,7.6c-1.2,0-2.3,1.1-2.3,3c0,1.9,1.1,2.9,2.2,2.9c1.2,0,2.3-1,2.3-3
	C12.4,8.6,11.6,7.6,10.2,7.6z M10.2,12.6c-0.8,0-1.2-1-1.2-2.2s0.4-2.2,1.2-2.2c0.9,0,1.2,1,1.2,2.2C11.4,11.7,11,12.6,10.2,12.6z"
	/>
</svg>
