<?xml version="1.0" encoding="utf-8"?>
<!-- Generator: Adobe Illustrator 19.0.0, SVG Export Plug-In . SVG Version: 6.00 Build 0)  -->
<svg version="1.1" id="Layer_1" xmlns="http://www.w3.org/2000/svg" xmlns:xlink="http://www.w3.org/1999/xlink" x="0px" y="0px"
	 viewBox="0 0 41.2 34.5" style="enable-background:new 0 0 41.2 34.5;" xml:space="preserve">
<style type="text/css">
	.st0{fill:#FEC46B;}
</style>
<path id="XMLID_3038_" class="st0" d="M15.7,9.4L15.7,9.4c0.2,0,0.4,0.1,0.6,0.2c0.8,0.4,3.2,1.9,4.3,5c1.3,3.8,3.5,6.7,3.5,6.7
	s3.5-8.8,6.7-13.7c1.5-2.2,2.6-3.4,3.2-4c0.3-0.3,0.8-0.5,1.3-0.5l0,0c1.4,0.1,2.2,1.7,1.3,2.8c-1.5,1.9-3.4,4.9-5.2,8.5
	c-3.3,6.8-7.1,14-7.1,14s-3.5-3.8-5.7-9.2c-1.2-2.9-2.9-5.6-4.2-7.5C13.6,10.7,14.4,9.3,15.7,9.4z"/>
</svg>
