<?xml version="1.0" encoding="utf-8"?>
<!-- Generator: Adobe Illustrator 19.0.0, SVG Export Plug-In . SVG Version: 6.00 Build 0)  -->
<svg version="1.1" id="Layer_1" xmlns="http://www.w3.org/2000/svg" xmlns:xlink="http://www.w3.org/1999/xlink" x="0px" y="0px"
	 viewBox="0 0 34.5 24.2" style="enable-background:new 0 0 34.5 24.2;" xml:space="preserve">
<style type="text/css">
	.st0{fill:none; stroke:#b0b0b0;}
</style>
<path id="XMLID_3024_" class="st0" d="M22,1.4h-8.7c-4.1,0-7.5,3.4-7.5,7.5v0c0,2.1,0.9,4,2.3,5.4L7,21l5.8-4.6c0.2,0,0.3,0,0.5,0
	H22c4.1,0,7.5-3.4,7.5-7.5v0C29.5,4.7,26.1,1.4,22,1.4z M13,10.6c-0.8,0-1.4-0.6-1.4-1.4c0-0.8,0.6-1.4,1.4-1.4s1.4,0.6,1.4,1.4
	C14.4,10,13.8,10.6,13,10.6z M17.9,10.6c-0.8,0-1.4-0.6-1.4-1.4c0-0.8,0.6-1.4,1.4-1.4s1.4,0.6,1.4,1.4C19.3,10,18.7,10.6,17.9,10.6
	z M22.6,10.6c-0.8,0-1.4-0.6-1.4-1.4c0-0.8,0.6-1.4,1.4-1.4S24,8.5,24,9.3C24,10,23.4,10.6,22.6,10.6z"/>
</svg>
