<?xml version="1.0" encoding="utf-8"?>
<!-- Generator: Adobe Illustrator 19.0.0, SVG Export Plug-In . SVG Version: 6.00 Build 0)  -->
<svg version="1.1" id="Layer_1" xmlns="http://www.w3.org/2000/svg" xmlns:xlink="http://www.w3.org/1999/xlink" x="0px" y="0px"
	 viewBox="0 0 34.5 33.7" style="enable-background:new 0 0 34.5 33.7;" xml:space="preserve">
<style type="text/css">
	.st0{fill:#010101;}
</style>
<circle id="XMLID_2490_" class="st0" cx="18.4" cy="16.1" r="7.6"/>
<path id="XMLID_2501_" class="st0" d="M29.9,9.1h-6.4c2.2,1.6,3.6,4.1,3.6,7c0,4.8-3.9,8.7-8.7,8.7s-8.7-3.9-8.7-8.7
	c0-2.9,1.4-5.4,3.6-7H6.1c-1.8,0-3.2,1.4-3.2,3.2v12.3c0,1.8,1.4,3.2,3.2,3.2h23.8c1.8,0,3.2-1.4,3.2-3.2V12.3
	C33.1,10.5,31.7,9.1,29.9,9.1z M6.6,13.6c-0.6,0-1-0.5-1-1s0.5-1,1-1c0.6,0,1,0.5,1,1S7.2,13.6,6.6,13.6z"/>
</svg>
