<?xml version="1.0" encoding="utf-8"?>
<!-- Generator: Adobe Illustrator 19.0.0, SVG Export Plug-In . SVG Version: 6.00 Build 0)  -->
<svg version="1.1" id="Layer_1" xmlns="http://www.w3.org/2000/svg" xmlns:xlink="http://www.w3.org/1999/xlink" x="0px" y="0px"
	 viewBox="-492 492 14.3 17" style="enable-background:new -492 492 14.3 17;" xml:space="preserve">
<style type="text/css">
	.st0{fill:#F0A61F;}
</style>
<g>
	<path class="st0" d="M-489,501.4c-0.2-1.4,0.3-2.9,1.3-3.9c0.9-0.9,2-1.3,3.2-1.3c1,0,1.9,0.3,2.7,0.9h-1c-0.3,0-0.5,0.2-0.5,0.5
		s0.2,0.5,0.5,0.5h2.3c0.3,0,0.5-0.2,0.5-0.5v-2.3c0-0.3-0.2-0.5-0.5-0.5s-0.5,0.2-0.5,0.5v1.1c-1-0.8-2.2-1.3-3.5-1.3
		c-1.5,0-2.9,0.6-3.9,1.6c-1.2,1.2-1.8,3-1.6,4.8c0,0.2,0.3,0.4,0.5,0.4c0,0,0.1,0,0.1,0C-489.1,501.9-488.9,501.6-489,501.4z"/>
	<path class="st0" d="M-479.1,499.1c-0.1-0.3-0.4-0.4-0.6-0.3c-0.3,0.1-0.4,0.4-0.3,0.6c0.5,1.6,0,3.4-1.1,4.5
		c-1.8,1.8-4.6,1.8-6.4,0.1h1.2c0.3,0,0.5-0.2,0.5-0.5s-0.2-0.5-0.5-0.5h-2.3c-0.3,0-0.5,0.2-0.5,0.5v2.3c0,0.3,0.2,0.5,0.5,0.5
		s0.5-0.2,0.5-0.5v-1c1.1,1,2.4,1.5,3.7,1.5c1.4,0,2.9-0.5,3.9-1.6C-479.1,503.2-478.5,501-479.1,499.1z"/>
</g>
</svg>
