<?xml version="1.0" encoding="utf-8"?>
<!-- Generator: Adobe Illustrator 19.0.0, SVG Export Plug-In . SVG Version: 6.00 Build 0)  -->
<svg version="1.1" id="Layer_1" xmlns="http://www.w3.org/2000/svg" xmlns:xlink="http://www.w3.org/1999/xlink" x="0px" y="0px"
	 viewBox="-492 492 14.3 17" style="enable-background:new -492 492 14.3 17;" xml:space="preserve">
<style type="text/css">
	.st0{fill:#e6e6e6;}
</style>
<path id="XMLID_3048_" class="st0" d="M-478.6,500.6c0-0.7-1-1.3-2.2-1.5c0.8-1,1.1-2.1,0.6-2.6c-0.5-0.5-1.6-0.3-2.6,0.6
	c-0.1-1.3-0.7-2.2-1.5-2.2s-1.3,1-1.5,2.2c-1-0.8-2.1-1.1-2.6-0.6c-0.5,0.5-0.3,1.6,0.6,2.6c-1.3,0.1-2.2,0.7-2.2,1.5s1,1.3,2.2,1.5
	c-0.8,1-1.1,2.1-0.6,2.6c0.5,0.5,1.6,0.3,2.6-0.6c0.1,1.3,0.7,2.2,1.5,2.2s1.3-1,1.5-2.2c1,0.8,2.1,1.1,2.6,0.6
	c0.5-0.5,0.3-1.6-0.6-2.6C-479.6,501.9-478.6,501.3-478.6,500.6z M-484.3,501.8c-0.6,0-1.1-0.5-1.1-1.1c0-0.6,0.5-1.1,1.1-1.1
	c0.6,0,1.1,0.5,1.1,1.1C-483.2,501.3-483.7,501.8-484.3,501.8z"/>
</svg>
