<?xml version="1.0" encoding="utf-8"?>
<!-- Generator: Adobe Illustrator 19.0.0, SVG Export Plug-In . SVG Version: 6.00 Build 0)  -->
<svg version="1.1" id="Layer_1" xmlns="http://www.w3.org/2000/svg" xmlns:xlink="http://www.w3.org/1999/xlink" x="0px" y="0px"
	 viewBox="-49.5 39.2 28.5 22.2" style="enable-background:new -49.5 39.2 28.5 22.2;" xml:space="preserve">
<style type="text/css">
	.st0{fill:#414242;}
</style>
<path id="XMLID_2940_" class="st0" d="M-28,41.5l-16,16c-0.4,0.4-0.4,1.1,0,1.5v0c0.4,0.4,1.1,0.4,1.5,0l16-16
	c0.4-0.4,0.4-1.1,0-1.5l0,0C-26.9,41.1-27.6,41.1-28,41.5z"/>
<path id="XMLID_2474_" class="st0" d="M-26.5,57.5l-16-16c-0.4-0.4-1.1-0.4-1.5,0l0,0c-0.4,0.4-0.4,1.1,0,1.5l16,16
	c0.4,0.4,1.1,0.4,1.5,0v0C-26.1,58.6-26.1,57.9-26.5,57.5z"/>
</svg>
