<?xml version="1.0" encoding="utf-8"?>
<!-- Generator: Adobe Illustrator 19.0.0, SVG Export Plug-In . SVG Version: 6.00 Build 0)  -->
<svg version="1.1" id="Layer_1" xmlns="http://www.w3.org/2000/svg" xmlns:xlink="http://www.w3.org/1999/xlink" x="0px" y="0px"
	 viewBox="-495.6 492 19.1 17" style="enable-background:new -495.6 492 19.1 17;" xml:space="preserve">
<style type="text/css">
	.st0{fill:#f6c26f;}
</style>
<path class="st0" d="M-479.8,503.5h-9.8c-0.3,0-0.6-0.2-0.6-0.5l-1.5-8.3h-1.5c-0.4,0-0.6-0.3-0.6-0.6s0.3-0.6,0.6-0.6h2.1
	c0.3,0,0.6,0.2,0.6,0.5l1.5,8.3h8.7l1-6.5c0.1-0.4,0.4-0.6,0.7-0.5c0.4,0.1,0.6,0.4,0.5,0.7l-1.1,7
	C-479.2,503.2-479.4,503.5-479.8,503.5z"/>
<path class="st0" d="M-478.9,497.9h-11.7c-0.4,0-0.6-0.3-0.6-0.6s0.3-0.6,0.6-0.6h11.7c0.4,0,0.7,0.3,0.7,0.6
	S-478.5,497.9-478.9,497.9z"/>
<path class="st0" d="M-479.3,500.5H-490c-0.2,0-0.4-0.2-0.4-0.4s0.2-0.4,0.4-0.4h10.7c0.2,0,0.4,0.2,0.4,0.4
	S-479.1,500.5-479.3,500.5z"/>
<path class="st0" d="M-486.2,503.2c-0.2,0-0.4-0.2-0.4-0.4v-5.6c0-0.2,0.2-0.4,0.4-0.4s0.4,0.2,0.4,0.4v5.6
	C-485.9,503-486,503.2-486.2,503.2z"/>
<path class="st0" d="M-483.4,503.2c-0.2,0-0.4-0.2-0.4-0.4v-5.6c0-0.2,0.2-0.4,0.4-0.4s0.4,0.2,0.4,0.4v5.6
	C-483,503-483.2,503.2-483.4,503.2z"/>
<circle id="XMLID_695_" class="st0" cx="-488" cy="505.4" r="1.3"/>
<circle id="XMLID_696_" class="st0" cx="-481.3" cy="505.4" r="1.3"/>
</svg>
