<?xml version="1.0" encoding="utf-8"?>
<!-- Generator: Adobe Illustrator 19.0.0, SVG Export Plug-In . SVG Version: 6.00 Build 0)  -->
<svg version="1.1" id="Layer_1" xmlns="http://www.w3.org/2000/svg" xmlns:xlink="http://www.w3.org/1999/xlink" x="0px" y="0px"
	 viewBox="0 0 14.5 18.7" style="enable-background:new 0 0 14.5 18.7;" xml:space="preserve">
<style type="text/css">
	.st0{fill:#FEC46B;}
</style>
<path id="XMLID_2491_" class="st0" d="M9.7,7.6c0.4-1.1,1.3-3.6,0.6-4.1C9.6,3.1,9,6,8.8,7.2c-0.3-0.1-0.7-0.1-1-0.1
	c-0.3,0-0.5,0-0.8,0.1C6.8,5.9,6.2,3.1,5.4,3.5C4.8,4,5.6,6.4,6,7.5c-1.3,0.7-2.2,2-2.2,3.6c0,2.2,1.8,4,4,4s4-1.8,4-4
	C11.8,9.6,10.9,8.3,9.7,7.6z M7.8,14.3c-1.8,0-3.2-1.4-3.2-3.2c0-1.8,1.4-3.2,3.2-3.2c1.8,0,3.2,1.4,3.2,3.2
	C11,12.8,9.6,14.3,7.8,14.3z"/>
</svg>
