<?xml version="1.0" encoding="utf-8"?>
<!-- Generator: Adobe Illustrator 19.0.0, SVG Export Plug-In . SVG Version: 6.00 Build 0)  -->
<svg version="1.1" id="Layer_1" xmlns="http://www.w3.org/2000/svg" xmlns:xlink="http://www.w3.org/1999/xlink" x="0px" y="0px"
	 viewBox="0 0 19.8 20.7" style="enable-background:new 0 0 19.8 20.7;" xml:space="preserve">
<style type="text/css">
	.st0{fill:#b6b6b6;}
</style>
<path id="XMLID_1155_" class="st0" d="M14.7,4.4L7.9,7.6l0,2.4l-2-0.9V6.7l6.6-3.2L11.3,3C10.7,2.7,10,2.7,9.5,3L4.5,5.2
	c-0.6,0.3-1,0.8-1,1.5v7.2c0,0.8,0.5,1.5,1.2,1.8l5.1,2.2c0.5,0.2,1,0.2,1.5,0l5.1-2.2c0.7-0.3,1.2-1,1.2-1.8V6.7
	c0-0.7-0.4-1.2-1-1.5L14.7,4.4z"/>
</svg>
