<?xml version="1.0" encoding="utf-8"?>
<!-- Generator: Adobe Illustrator 19.0.0, SVG Export Plug-In . SVG Version: 6.00 Build 0)  -->
<svg version="1.1" id="Layer_1" xmlns="http://www.w3.org/2000/svg" xmlns:xlink="http://www.w3.org/1999/xlink" x="0px" y="0px"
	 viewBox="0 0 14.5 18.7" style="enable-background:new 0 0 14.5 18.7;" xml:space="preserve">
<style type="text/css">
	.st0{fill:#FEC46B;}
</style>
<path id="XMLID_1235_" class="st0" d="M10,7.5c0.4-1.1,1.3-3.6,0.6-4.1C9.9,3,9.3,5.9,9.1,7.1C8.7,7,8.4,7,8.1,7C7.8,7,7.5,7,7.3,7
	C7,5.8,6.4,3,5.7,3.4C5,3.9,5.9,6.2,6.3,7.4C5,8,4.1,9.4,4.1,11c0,2.2,1.8,4,4,4s4-1.8,4-4C12.1,9.5,11.2,8.2,10,7.5z"/>
</svg>
