<?xml version="1.0" encoding="utf-8"?>
<!-- Generator: Adobe Illustrator 19.0.0, SVG Export Plug-In . SVG Version: 6.00 Build 0)  -->
<svg version="1.1" id="Layer_1" xmlns="http://www.w3.org/2000/svg" xmlns:xlink="http://www.w3.org/1999/xlink" x="0px" y="0px"
	 viewBox="0 0 20 18.7" style="enable-background:new 0 0 20 18.7;" xml:space="preserve">
<style type="text/css">
	.st0{fill:none;}
	.st1{fill:#F7941E;}
	.st2{fill:#FCB23A;}
</style>
<g id="XMLID_2471_">
	<path id="XMLID_2473_" class="st0" d="M6.1,7.2c0.4,0.7,1.2,2.2,2.3,3.6c1,1.2,1.9,1.9,2.4,2.3c0.3,0.2,0.6,0.1,0.8-0.1l0.4-0.5
		c-0.6-0.6-1.3-1.4-2.1-2.3C8.7,8.7,7.8,7.3,7.2,6.1L6.3,6.6C6,6.7,6,6.9,6.1,7.2z"/>
	<path id="XMLID_2472_" class="st1" d="M11.7,12.9c-0.2,0.3-0.6,0.3-0.8,0.1c-0.5-0.4-1.4-1.1-2.4-2.3c-1.1-1.4-2-2.9-2.3-3.6
		C6,6.9,6,6.7,6.3,6.6l0.9-0.5c-1.3-2.3-1.7-4-1.8-4.2C4.9,2.2,4.5,2.5,4,2.9c-1.2,1-1,1.3-0.9,1.9C3.3,5.3,4.1,9.6,7,12.6
		c2.9,3.1,6,4.4,6.6,4.5c0.6,0.1,1-0.2,1-0.2s1.1-0.8,1.7-1.4c-0.1,0-1.8-0.6-4.3-3L11.7,12.9z"/>
</g>
<path id="XMLID_2470_" class="st2" d="M16.8,14.7c0.2-0.2,0.1-0.6-0.2-0.7l-3.3-2.4c-0.2-0.2-0.6-0.1-0.8,0.1L12,12.4
	c2.5,2.4,4.1,3,4.3,3c0.1-0.1,0.2-0.2,0.2-0.3C16.6,15,16.7,14.9,16.8,14.7z"/>
<path id="XMLID_2469_" class="st2" d="M8,5.7c0.3-0.1,0.4-0.5,0.3-0.8l-1.4-3C6.8,1.6,6.4,1.4,6.1,1.6C5.9,1.7,5.6,1.8,5.4,1.9
	c0.1,0.2,0.5,1.9,1.8,4.2L8,5.7z"/>
</svg>
