<?xml version="1.0" encoding="utf-8"?>
<!-- Generator: Adobe Illustrator 19.0.0, SVG Export Plug-In . SVG Version: 6.00 Build 0)  -->
<svg version="1.1" id="Layer_1" xmlns="http://www.w3.org/2000/svg" xmlns:xlink="http://www.w3.org/1999/xlink" x="0px" y="0px"
	 viewBox="-54 18.3 25.7 25" style="enable-background:new -54 18.3 25.7 25;" xml:space="preserve">
<style type="text/css">
	.st0{fill:#f6c26f;}
</style>
<path id="XMLID_3160_" class="st0" d="M-41.5,39.9c-5.1,0-9.2-4.1-9.2-9.2s4.1-9.2,9.2-9.2s9.2,4.1,9.2,9.2S-36.4,39.9-41.5,39.9z
	 M-41.5,23.1c-4.1,0-7.5,3.4-7.5,7.5s3.4,7.5,7.5,7.5s7.5-3.4,7.5-7.5S-37.3,23.1-41.5,23.1z"/>
<g id="XMLID_3151_">
	<g>
		<path id="XMLID_46_" class="st0" d="M-45.8,34.3v-7.2h3.5c1.3,0,2,0.8,2,1.8c0,0.9-0.6,1.5-1.2,1.6c0.8,0.1,1.4,0.9,1.4,1.8
			c0,1.1-0.7,1.9-2.1,1.9H-45.8z M-41.5,29.2c0-0.5-0.4-0.9-1-0.9h-2v1.9h2C-41.9,30.1-41.5,29.7-41.5,29.2z M-41.4,32.2
			c0-0.5-0.4-1-1.1-1h-2.1v2h2.1C-41.8,33.2-41.4,32.8-41.4,32.2z"/>
		<path id="XMLID_44_" class="st0" d="M-38.9,34.3v-5.2h1.1v0.8c0.4-0.5,1-0.9,1.7-0.9v1.1c-0.1,0-0.2,0-0.4,0
			c-0.5,0-1.1,0.3-1.3,0.7v3.5H-38.9z"/>
	</g>
</g>
</svg>
