<?xml version="1.0" encoding="utf-8"?>
<!-- Generator: Adobe Illustrator 19.0.0, SVG Export Plug-In . SVG Version: 6.00 Build 0)  -->
<svg version="1.1" id="Layer_1" xmlns="http://www.w3.org/2000/svg" xmlns:xlink="http://www.w3.org/1999/xlink" x="0px" y="0px"
	 viewBox="-492 492 14.3 17" style="enable-background:new -492 492 14.3 17;" xml:space="preserve">
<style type="text/css">
	.st0{fill:#fff;}
</style>
<path id="XMLID_3200_" class="st0" d="M-484.4,494.6c-3.1,0-5.6,2.5-5.6,5.6s2.5,5.6,5.6,5.6s5.6-2.5,5.6-5.6
	S-481.3,494.6-484.4,494.6z M-481.4,502.7c0,0.1-0.1,0.1-0.1,0.2c0,0-0.1,0.1-0.1,0.1c-0.3,0.3-0.7,0.6-0.7,0.6s-0.2,0.2-0.5,0.1
	c-0.3-0.1-1.6-0.6-2.9-2c-1.3-1.3-1.6-3.2-1.7-3.5c0-0.2-0.1-0.4,0.4-0.8c0.2-0.2,0.4-0.3,0.6-0.4c0.1-0.1,0.2-0.1,0.3-0.2
	c0.1-0.1,0.3,0,0.3,0.1l0.6,1.3c0.1,0.1,0,0.3-0.1,0.3l-0.4,0.2l-0.4,0.2c-0.1,0.1-0.1,0.2-0.1,0.3c0.2,0.3,0.5,1,1,1.6
	c0.4,0.5,0.8,0.8,1.1,1c0.1,0.1,0.3,0.1,0.4-0.1l0.2-0.2l0.2-0.3c0.1-0.1,0.2-0.1,0.3,0l1.5,1C-481.3,502.5-481.3,502.6-481.4,502.7
	z"/>
</svg>
