<?xml version="1.0" encoding="utf-8"?>
<!-- Generator: Adobe Illustrator 19.0.0, SVG Export Plug-In . SVG Version: 6.00 Build 0)  -->
<svg version="1.1" id="Layer_1" xmlns="http://www.w3.org/2000/svg" xmlns:xlink="http://www.w3.org/1999/xlink" x="0px" y="0px"
	 viewBox="0 0 41.2 34.5" style="enable-background:new 0 0 41.2 34.5;" xml:space="preserve">
<style type="text/css">
	.st0{fill:#b0b0b0;}
</style>
<rect id="XMLID_366_" x="6.2" y="28.2" class="st0" width="28.8" height="3.2"/>
<path id="XMLID_374_" class="st0" d="M25.5,7.2c0.3-0.3,0.3-0.7,0-1l-2.8-2.8l0,0l-1.5-1.5c-0.2-0.2-0.6-0.2-0.9,0l-1.5,1.5l0,0
	l-2.8,2.8c-0.3,0.3-0.3,0.7,0,1l1,1c0.3,0.3,0.7,0.3,1,0l1.4-1.4v16.7c0,0.4,0.3,0.7,0.7,0.7h1.4c0.4,0,0.7-0.3,0.7-0.7V6.8l1.4,1.4
	c0.3,0.3,0.7,0.3,1,0L25.5,7.2z"/>
<g id="XMLID_369_">
	<rect id="XMLID_371_" x="6.1" y="19" class="st0" width="10.8" height="3.2"/>
	<rect id="XMLID_377_" x="24.2" y="19" class="st0" width="10.6" height="3.2"/>
</g>
<g id="XMLID_372_">
	<rect id="XMLID_373_" x="24.2" y="9.7" class="st0" width="10.6" height="3.2"/>
	<rect id="XMLID_375_" x="6.1" y="9.7" class="st0" width="10.8" height="3.2"/>
</g>
</svg>
