<?xml version="1.0" encoding="utf-8"?>
<!-- Generator: Adobe Illustrator 19.0.0, SVG Export Plug-In . SVG Version: 6.00 Build 0)  -->
<svg version="1.1" id="Layer_1" xmlns="http://www.w3.org/2000/svg" xmlns:xlink="http://www.w3.org/1999/xlink" x="0px" y="0px"
	 viewBox="-49.5 39.2 28.5 22.2" style="enable-background:new -49.5 39.2 28.5 22.2;" xml:space="preserve">
<style type="text/css">
	.st0{fill:#414242;}
</style>
<path id="XMLID_1240_" class="st0" d="M-24.1,41.9h-22.6c-0.6,0-1.1,0.5-1.1,1.1l0,0c0,0.6,0.5,1.1,1.1,1.1h22.6
	c0.6,0,1.1-0.5,1.1-1.1l0,0C-23,42.4-23.5,41.9-24.1,41.9z"/>
<path id="XMLID_2489_" class="st0" d="M-24.1,48.9h-22.6c-0.6,0-1.1,0.5-1.1,1.1l0,0c0,0.6,0.5,1.1,1.1,1.1h22.6
	c0.6,0,1.1-0.5,1.1-1.1l0,0C-23,49.4-23.5,48.9-24.1,48.9z"/>
<path id="XMLID_2939_" class="st0" d="M-24.1,56.1h-22.6c-0.6,0-1.1,0.5-1.1,1.1l0,0c0,0.6,0.5,1.1,1.1,1.1h22.6
	c0.6,0,1.1-0.5,1.1-1.1l0,0C-23,56.5-23.5,56.1-24.1,56.1z"/>
</svg>
