<?xml version="1.0" encoding="utf-8"?>
<!-- Generator: Adobe Illustrator 19.0.0, SVG Export Plug-In . SVG Version: 6.00 Build 0)  -->
<svg version="1.1" id="Layer_1" xmlns="http://www.w3.org/2000/svg" xmlns:xlink="http://www.w3.org/1999/xlink" x="0px" y="0px"
	 viewBox="0 0 34.5 33.7" style="enable-background:new 0 0 34.5 33.7;" xml:space="preserve">
<style type="text/css">
	.st0{fill:#010101;}
</style>
<path id="XMLID_252_" class="st0" d="M18,4.2C10.2,4.2,3.8,5.4,3.8,7c0,0-0.1,1.3,1,2.8c1,1.4,9.5,10.3,10.4,11.2l0.8,9.8
	c0,0,0.2,0.6,2,0.6c1.8,0,2.1-0.6,2.1-0.6l0.7-9.7h0.1c0,0,9-9.6,10.1-10.7C32.2,9,32.2,7,32.2,7C32.2,5.4,25.8,4.2,18,4.2z M18,8.9
	C11.2,8.9,5.7,8,5.7,7C5.7,5.9,11.2,5,18,5S30.3,5.9,30.3,7C30.3,8,24.8,8.9,18,8.9z"/>
</svg>
