<?xml version="1.0" encoding="utf-8"?>
<!-- Generator: Adobe Illustrator 19.0.0, SVG Export Plug-In . SVG Version: 6.00 Build 0)  -->
<svg version="1.1" id="Layer_1" xmlns="http://www.w3.org/2000/svg" xmlns:xlink="http://www.w3.org/1999/xlink" x="0px" y="0px"
	 viewBox="-492 492 14.3 17" style="enable-background:new -492 492 14.3 17;" xml:space="preserve">
<style type="text/css">
	.st0{fill:#fff;}
</style>
<path id="XMLID_4273_" class="st0" d="M-480.5,503.9l-2.6-2.6c0.4-0.5,0.7-1.2,0.7-1.9c0-1.7-1.4-3.1-3.1-3.1
	c-1.7,0-3.1,1.4-3.1,3.1s1.4,3.1,3.1,3.1c0.7,0,1.4-0.3,1.9-0.7l2.6,2.6c0.1,0.1,0.2,0.1,0.3,0.1c0.1,0,0.2,0,0.3-0.1
	C-480.3,504.3-480.3,504.1-480.5,503.9z M-487.8,499.5c0-1.3,1.1-2.3,2.3-2.3s2.3,1.1,2.3,2.3c0,0.6-0.3,1.2-0.7,1.6c0,0,0,0,0,0
	c0,0,0,0,0,0c-0.4,0.4-1,0.7-1.6,0.7C-486.8,501.8-487.8,500.7-487.8,499.5z"/>
</svg>
