<?xml version="1.0" encoding="utf-8"?>
<!-- Generator: Adobe Illustrator 19.0.0, SVG Export Plug-In . SVG Version: 6.00 Build 0)  -->
<svg version="1.1" id="Layer_1" xmlns="http://www.w3.org/2000/svg" xmlns:xlink="http://www.w3.org/1999/xlink" x="0px" y="0px"
	 viewBox="0 0 14.5 18.7" style="enable-background:new 0 0 14.5 18.7;" xml:space="preserve">
<style type="text/css">
	.st0{fill:#FEC46B;}
</style>
<rect id="XMLID_2476_" x="8" y="8.6" class="st0" width="2.2" height="1.4"/>
<path id="XMLID_2493_" class="st0" d="M9.2,8.3V4.9c0-0.3-0.3-0.6-0.6-0.6H3.8c-0.3,0-0.6,0.3-0.6,0.6v8.7c0,0.3,0.3,0.6,0.6,0.6
	h4.8c0.3,0,0.6-0.3,0.6-0.6v-3.3H7.7V8.3H9.2z M4.1,9.6c-0.2,0-0.4-0.2-0.4-0.4c0-0.2,0.2-0.4,0.4-0.4c0.2,0,0.4,0.2,0.4,0.4
	C4.5,9.4,4.3,9.6,4.1,9.6z"/>
<polygon id="XMLID_1236_" class="st0" points="10.1,10.3 10.1,8.2 11.2,9.3 "/>
</svg>
