<?xml version="1.0" encoding="utf-8"?>
<!-- Generator: Adobe Illustrator 19.0.0, SVG Export Plug-In . SVG Version: 6.00 Build 0)  -->
<svg version="1.1" id="Layer_1" xmlns="http://www.w3.org/2000/svg" xmlns:xlink="http://www.w3.org/1999/xlink" x="0px" y="0px"
	 viewBox="0 0 34.5 33.7" style="enable-background:new 0 0 34.5 33.7;" xml:space="preserve">
<style type="text/css">
	.st0{fill:#f6c26f;}
</style>
<path id="XMLID_2438_" class="st0" d="M28.2,21l-2.4-2.3l0-2.2l2.4-2.4c0.2-0.2,0.3-0.5,0.1-0.8l-2-3.2c-0.2-0.3-0.5-0.4-0.8-0.3l-3.2,1.2
	L21,10.4L20.3,7c-0.1-0.3-0.3-0.5-0.6-0.5H16c-0.3,0-0.6,0.2-0.7,0.6l-0.7,3.3l-1.5,0.8l-3-1.1c-0.4-0.1-0.9,0-1.1,0.4l-1.7,2.8
	c-0.2,0.4-0.2,0.9,0.2,1.2l2.3,2.2l0,2.2l-2.4,2.3c-0.3,0.3-0.3,0.7-0.1,1l1.8,2.9c0.2,0.4,0.7,0.5,1.1,0.4l3-1.1l1.4,0.7l0.7,3.2
	c0.1,0.4,0.4,0.6,0.8,0.6h3.4c0.4,0,0.8-0.3,0.9-0.8l0.6-3.1l1.5-0.8l3,1.1c0.4,0.1,0.8,0,1-0.4l1.8-3C28.5,21.7,28.5,21.3,28.2,21z
	 M17.4,21.5c-1.7-0.2-3.1-1.5-3.2-3.2c-0.2-2.3,1.7-4.2,4-4c1.7,0.2,3.1,1.5,3.2,3.2C21.5,19.8,19.6,21.7,17.4,21.5z"/>
</svg>
