<?xml version="1.0" encoding="utf-8"?>
<!-- Generator: Adobe Illustrator 19.0.0, SVG Export Plug-In . SVG Version: 6.00 Build 0)  -->
<svg version="1.1" id="Layer_1" xmlns="http://www.w3.org/2000/svg" xmlns:xlink="http://www.w3.org/1999/xlink" x="0px" y="0px"
	 viewBox="0 0 40.7 40.7" style="enable-background:new 0 0 40.7 40.7;" xml:space="preserve">
<style type="text/css">
	.st0{fill:#FCB23A;}
	.st1{fill:#3D556D;}
	.st2{fill:#59718D;}
	.st3{fill:#F7941E;}
</style>
<path id="XMLID_1449_" class="st0" d="M10,18.4h23.2v11c0,1.4-1.1,2.5-2.5,2.5H12.4c-1.4,0-2.5-1.1-2.5-2.5V18.4z"/>
<rect id="XMLID_1448_" x="29.2" y="21.6" class="st1" width="4" height="2.3"/>
<rect id="XMLID_1447_" x="12.1" y="14.3" class="st2" width="2.7" height="5.4"/>
<rect id="XMLID_1446_" x="14" y="14.3" class="st1" width="0.8" height="5.4"/>
<path id="XMLID_1445_" class="st0" d="M12.1,14.3l1.2-3.2c0.1-0.1,0.3-0.1,0.3,0l1.2,3.2H12.1z"/>
<rect id="XMLID_1444_" x="19.8" y="13.2" class="st2" width="2.7" height="5.4"/>
<rect id="XMLID_1443_" x="21.7" y="13.2" class="st1" width="0.8" height="5.4"/>
<path id="XMLID_1442_" class="st0" d="M19.8,13.2l1.2-3.2c0.1-0.1,0.3-0.1,0.3,0l1.2,3.2H19.8z"/>
<rect id="XMLID_1441_" x="23.6" y="15.1" class="st2" width="2.7" height="5.4"/>
<rect id="XMLID_1440_" x="25.5" y="15.1" class="st1" width="0.8" height="5.4"/>
<path id="XMLID_1439_" class="st0" d="M23.6,15.1l1.2-3.2c0.1-0.1,0.3-0.1,0.3,0l1.2,3.2H23.6z"/>
<rect id="XMLID_1438_" x="28.4" y="14.3" class="st2" width="2.7" height="5.4"/>
<rect id="XMLID_1437_" x="30.3" y="14.3" class="st1" width="0.8" height="5.4"/>
<path id="XMLID_1436_" class="st0" d="M28.4,14.3l1.2-3.2c0.1-0.1,0.3-0.1,0.3,0l1.2,3.2H28.4z"/>
<rect id="XMLID_1435_" x="16.2" y="10.2" class="st2" width="2.7" height="9.2"/>
<rect id="XMLID_1434_" x="18" y="10.2" class="st1" width="0.8" height="9.2"/>
<path id="XMLID_1433_" class="st0" d="M16.2,10.2L17.4,7c0.1-0.1,0.3-0.1,0.3,0l1.2,3.2H16.2z"/>
<path id="XMLID_1296_" class="st3" d="M9.2,18.4h23.2v11c0,1.4-1.1,2.5-2.5,2.5H11.7c-1.4,0-2.5-1.1-2.5-2.5V18.4z"/>
<rect id="XMLID_1295_" x="9.2" y="21.6" class="st2" width="23.2" height="2.3"/>
<circle id="XMLID_1294_" class="st3" cx="10.9" cy="22.8" r="0.5"/>
<circle id="XMLID_1293_" class="st3" cx="30.8" cy="22.8" r="0.5"/>
<path id="XMLID_1292_" class="st1" d="M13.9,11.9l-0.3-0.7c-0.1-0.1-0.3-0.1-0.3,0L13,11.9H13.9z"/>
<path id="XMLID_1291_" class="st1" d="M18,7.8L17.7,7c-0.1-0.1-0.3-0.1-0.3,0l-0.3,0.7H18z"/>
<path id="XMLID_1290_" class="st1" d="M21.6,10.8l-0.3-0.7c-0.1-0.1-0.3-0.1-0.3,0l-0.3,0.7H21.6z"/>
<path id="XMLID_1289_" class="st1" d="M25.4,12.7L25.1,12c-0.1-0.1-0.3-0.1-0.3,0l-0.3,0.7H25.4z"/>
<path id="XMLID_1288_" class="st1" d="M30.2,11.9l-0.3-0.7c-0.1-0.1-0.3-0.1-0.3,0l-0.3,0.7H30.2z"/>
</svg>
