<?xml version="1.0" encoding="utf-8"?>
<!-- Generator: Adobe Illustrator 19.0.0, SVG Export Plug-In . SVG Version: 6.00 Build 0)  -->
<svg version="1.1" id="Layer_1" xmlns="http://www.w3.org/2000/svg" xmlns:xlink="http://www.w3.org/1999/xlink" x="0px" y="0px"
	 viewBox="0 0 40.7 40.7" style="enable-background:new 0 0 40.7 40.7;" xml:space="preserve">
<style type="text/css">
	.st0{fill:#3D556D;}
	.st1{fill:#FCB23A;}
	.st2{fill:#F7941E;}
	.st3{fill:#59718D;}
	.st4{fill:#F1F2F2;}
	.st5{fill:#FFFFFF;}
</style>
<ellipse id="XMLID_1472_" class="st0" cx="20.7" cy="14.5" rx="10.8" ry="9.7"/>
<path id="XMLID_1471_" class="st1" d="M31.4,29.5h-1.2c-1.8-1.3-5.4-2.3-9.6-2.3s-7.8,0.9-9.6,2.3H9.7v1.9c0,0,0,0,0,0.1s0,0,0,0.1
	v0h0c0.1,2.3,4.9,4.1,10.8,4.1s10.7-1.8,10.8-4.1h0V29.5z"/>
<ellipse id="XMLID_1234_" class="st2" cx="20.6" cy="29.7" rx="10.8" ry="4.2"/>
<ellipse id="XMLID_1233_" class="st3" cx="20.7" cy="15.8" rx="10.8" ry="9.7"/>
<ellipse id="XMLID_1232_" class="st0" cx="20.6" cy="29.7" rx="7.6" ry="2.9"/>
<path id="XMLID_1115_" class="st0" d="M22.5,26.1h-3.7c-0.3,0-0.6-0.3-0.6-0.6l0,0c0-0.3,0.3-0.6,0.6-0.6h3.7c0.3,0,0.6,0.3,0.6,0.6
	l0,0C23.1,25.8,22.8,26.1,22.5,26.1z"/>
<g id="XMLID_1112_">
	<path id="XMLID_1113_" class="st4" d="M24,8.6L13.7,20.5c1.6,1.9,4.1,3.1,7,3.1c4.8,0,8.7-3.5,8.7-7.8C29.4,12.5,27.1,9.7,24,8.6z"
		/>
</g>
<path id="XMLID_1111_" class="st5" d="M20.7,8c-4.8,0-8.7,3.5-8.7,7.8c0,1.8,0.7,3.4,1.8,4.7L24,8.6C23,8.2,21.8,8,20.7,8z"/>
</svg>
