<?xml version="1.0" encoding="utf-8"?>
<!-- Generator: Adobe Illustrator 19.0.0, SVG Export Plug-In . SVG Version: 6.00 Build 0)  -->
<svg version="1.1" id="Layer_1" xmlns="http://www.w3.org/2000/svg" xmlns:xlink="http://www.w3.org/1999/xlink" x="0px" y="0px"
	 viewBox="0 0 40.7 40.7" style="enable-background:new 0 0 40.7 40.7;" xml:space="preserve">
<style type="text/css">
	.st0{fill:#3D556D;}
	.st1{fill:#59718D;}
	.st2{fill:#FCB23A;}
</style>
<path id="XMLID_1428_" class="st0" d="M26.7,18.7c0,0,2.5,0,4.2,0s3.6,5.7,3.6,5.7h-0.3c0,0-0.8,0.1-1.1-0.6
	c-0.5-1.2-1.4-3.8-2.4-3.8c-0.9,0-3.6,0-3.6,0L26.7,18.7z"/>
<path id="XMLID_1427_" class="st0" d="M18.2,18.7h-7.5l0,4.5c0.3,1.2,1.3,2.1,2.6,2.1h3.1c1,0,1.8-0.8,1.8-1.8v-0.7V18.7z"/>
<path id="XMLID_1426_" class="st0" d="M20.3,18.7h8.5l-0.9,4.5c-0.3,1.2-1.3,2.1-2.6,2.1h-3.2c-1,0-1.8-0.8-1.8-1.8v-0.7V18.7z"/>
<path id="XMLID_1347_" class="st1" d="M17.4,18.7h-6.8c-0.9,0-1.5,0.8-1.3,1.6l0.6,2.9c0.3,1.2,1.3,2.1,2.6,2.1h3.1
	c1,0,1.8-0.8,1.8-1.8v-0.7V18.7z"/>
<path id="XMLID_1346_" class="st1" d="M19.6,18.7l8.5,0l-0.9,4.5c-0.3,1.2-1.1,2.1-2.3,2.1l-3.4,0c-1,0-1.8-0.8-1.8-1.8v-0.7V18.7z"
	/>
<polygon id="XMLID_1345_" class="st1" points="20.1,20.9 18.5,20.1 17,20.9 17,18.7 20.1,18.7 "/>
<path id="XMLID_1344_" class="st2" d="M11.1,19.6h5.5v3.7c0,0.5-0.4,1-0.9,1h-3.2c-0.8,0-1.6-0.6-1.8-1.5l-0.4-2.1
	C10.1,20.1,10.5,19.6,11.1,19.6z"/>
<path id="XMLID_1343_" class="st1" d="M26.1,18.7c0,0,2.5,0,4.2,0s3.6,5.7,3.6,5.7h-0.3c0,0-0.8,0.1-1.1-0.6
	c-0.5-1.2-1.4-3.8-2.4-3.8c-0.9,0-3.6,0-3.6,0L26.1,18.7z"/>
<path id="XMLID_1342_" class="st2" d="M26.1,19.6l-5.7,0v3.7c0,0.5,0.4,1,0.9,1l3.5,0c0.8,0,1.3-0.6,1.5-1.5l0.5-2.3
	C26.9,20,26.6,19.6,26.1,19.6z"/>
</svg>
