<?xml version="1.0" encoding="utf-8"?>
<!-- Generator: Adobe Illustrator 19.0.0, SVG Export Plug-In . SVG Version: 6.00 Build 0)  -->
<svg version="1.1" id="Layer_1" xmlns="http://www.w3.org/2000/svg" xmlns:xlink="http://www.w3.org/1999/xlink" x="0px" y="0px"
	 viewBox="0 0 40.7 40.7" style="enable-background:new 0 0 40.7 40.7;" xml:space="preserve">
<style type="text/css">
	.st0{fill:#F7941E;}
	.st1{fill:#59718D;}
	.st2{fill:#FCB23A;}
	.st3{fill:#3D556D;}
</style>
<polygon id="XMLID_1429_" class="st0" points="14.3,6.4 14.3,5.6 15.9,4.9 15.9,6.4 "/>
<path id="XMLID_1336_" class="st0" d="M10.6,13.3h9.2l-1.3,22.1c0,0.5-0.5,0.9-1,0.9H13c-0.5,0-0.9-0.4-1-0.9L10.6,13.3z"/>
<path id="XMLID_1335_" class="st1" d="M10.6,13.3L10.5,12c0,0-0.1-0.5,0.4-0.5C12.6,11.2,14,9.8,14,8V6.8c0-0.3,0.2-0.5,0.5-0.5h1.4
	c0.3,0,0.5,0.2,0.5,0.5V8c0,1.8,1.4,3.3,3.2,3.5c0.5,0.1,0.4,0.6,0.4,0.6l-0.1,1.2H10.6z"/>
<path id="XMLID_1334_" class="st1" d="M28.8,33.4H27c-0.6,0-1-0.5-1-1V10.2h3.8v22.2C29.8,32.9,29.3,33.4,28.8,33.4z"/>
<path id="XMLID_1333_" class="st0" d="M28.3,6.5h-0.9c-0.2,0-0.4,0.1-0.5,0.3l-1,3.3h3.8l-1-3.3C28.7,6.6,28.5,6.5,28.3,6.5z"/>
<path id="XMLID_1332_" class="st1" d="M28.3,6.5h-0.9l0.2-1.4c0,0,0-0.2,0.2-0.2c0.2,0,0.2,0.2,0.2,0.2L28.3,6.5z"/>
<path id="XMLID_1331_" class="st0" d="M28.1,36.3h-0.4c-0.3,0-0.6-0.3-0.6-0.6v-2.3h1.6v2.3C28.7,36.1,28.4,36.3,28.1,36.3z"/>
<path id="XMLID_1330_" class="st2" d="M19.1,13.3l-1.3,22.1c0,0.5-0.5,0.9-1,0.9h0.7c0.5,0,0.9-0.4,1-0.9l1.3-22.1H19.1z"/>
<path id="XMLID_1329_" class="st2" d="M11.3,13.3l1.3,22.1c0,0.5,0.5,0.9,1,0.9h-0.7c-0.5,0-0.9-0.4-1-0.9l-1.3-22.1H11.3z"/>
<path id="XMLID_1328_" class="st3" d="M11.3,13.3l-0.1-0.9c0,0,0-0.4,0.3-0.5c0.5-0.1,1.4-0.5,2.1-1.4c0.9-1.2,0.9-4.1,0.9-4.1h0.6
	v6.9H11.3z"/>
<path id="XMLID_1327_" class="st3" d="M19.2,13.3l0.1-0.9c0,0,0.1-0.4-0.4-0.5c-0.5-0.1-1.5-0.5-2.2-1.4c-1-1.2-0.9-4.1-0.9-4.1
	h-0.7v6.9H19.2z"/>
<path id="XMLID_1326_" class="st3" d="M29.2,10.2v22.2c0,0.6-0.5,1-1,1h0.5c0.6,0,1-0.5,1-1V10.2H29.2z"/>
<path id="XMLID_1325_" class="st2" d="M28.8,6.8c-0.1-0.2-0.2-0.3-0.5-0.3h-0.5c0.2,0,0.4,0.1,0.5,0.3l1,3.3h0.5L28.8,6.8z"/>
<path id="XMLID_1324_" class="st0" d="M30.1,21.5c0,0.5,0,7,0,8.8h-4.3c0,0-0.2,0-0.2,0.3c0,0.3,0.2,0.3,0.2,0.3h4.4
	c0.2,0,0.4-0.2,0.4-0.4v-9.6C30.7,20.9,30.1,20.9,30.1,21.5z"/>
<path id="XMLID_1323_" class="st2" d="M28.4,33.4v2.3c0,0.3-0.3,0.6-0.6,0.6h0.3c0.3,0,0.6-0.3,0.6-0.6v-2.3H28.4z"/>
</svg>
