<?xml version="1.0" encoding="utf-8"?>
<!-- Generator: Adobe Illustrator 19.0.0, SVG Export Plug-In . SVG Version: 6.00 Build 0)  -->
<svg version="1.1" id="Layer_1" xmlns="http://www.w3.org/2000/svg" xmlns:xlink="http://www.w3.org/1999/xlink" x="0px" y="0px"
	 viewBox="0 0 40.7 40.7" style="enable-background:new 0 0 40.7 40.7;" xml:space="preserve">
<style type="text/css">
	.st0{fill:#FCB23A;}
	.st1{fill:#F7941E;}
	.st2{fill:#59718D;}
	.st3{fill:#3D556D;}
</style>
<g id="XMLID_1369_">
	<path id="XMLID_1379_" class="st0" d="M24.4,7h-1.1l0.2,0.4l0.1,0c-0.2,0.2-0.3,0.5-0.3,0.7c0,0.6,0.5,1.1,1.1,1.1s1.1-0.5,1.1-1.1
		S25.1,7,24.4,7z"/>
	<path id="XMLID_1378_" class="st0" d="M16.8,7h-1.1l0.2,0.4l0.1,0c-0.2,0.2-0.3,0.5-0.3,0.7c0,0.6,0.5,1.1,1.1,1.1s1.1-0.5,1.1-1.1
		S17.4,7,16.8,7z"/>
	<path id="XMLID_1377_" class="st0" d="M24.9,8.2c0,0,0.7,0,2,0s1.3,1.5,1.3,1.5v21.7h-2L24.9,8.2z"/>
	<path id="XMLID_1376_" class="st1" d="M27.2,31.3h-12c-1.5,0-2.8-1.2-2.8-2.8V9.8c0-0.9,0.7-1.7,1.7-1.7h11.4
		c0.9,0,1.7,0.7,1.7,1.7V31.3z"/>
	<path id="XMLID_1375_" class="st2" d="M25.1,26.8H14.5c-0.4,0-0.7-0.3-0.7-0.7V10.6c0-0.4,0.3-0.7,0.7-0.7h10.6
		c0.4,0,0.7,0.3,0.7,0.7v15.5C25.8,26.5,25.5,26.8,25.1,26.8z"/>
	<path id="XMLID_1374_" class="st3" d="M20.5,9.3H19c-0.1,0-0.2-0.1-0.2-0.2v0c0-0.1,0.1-0.2,0.2-0.2h1.5c0.1,0,0.2,0.1,0.2,0.2v0
		C20.7,9.2,20.6,9.3,20.5,9.3z"/>
	<path id="XMLID_1373_" class="st3" d="M20.8,29.6h-1.9c-0.2,0-0.3-0.1-0.3-0.3v-0.8c0-0.2,0.1-0.3,0.3-0.3h1.9
		c0.2,0,0.3,0.1,0.3,0.3v0.8C21,29.5,20.9,29.6,20.8,29.6z"/>
	<circle id="XMLID_1372_" class="st1" cx="15.7" cy="8.2" r="1.1"/>
	<circle id="XMLID_1371_" class="st1" cx="23.3" cy="8.2" r="1.1"/>
	<path id="XMLID_1370_" class="st3" d="M14.7,26.1V10.6c0-0.4,0.3-0.7,0.7-0.7h-0.9c-0.4,0-0.7,0.3-0.7,0.7v15.5
		c0,0.4,0.3,0.7,0.7,0.7h0.9C15,26.8,14.7,26.5,14.7,26.1z"/>
</g>
</svg>
