<?xml version="1.0" encoding="utf-8"?>
<!-- Generator: Adobe Illustrator 19.0.0, SVG Export Plug-In . SVG Version: 6.00 Build 0)  -->
<svg version="1.1" id="Layer_1" xmlns="http://www.w3.org/2000/svg" xmlns:xlink="http://www.w3.org/1999/xlink" x="0px" y="0px"
	 viewBox="0 0 40.7 40.7" style="enable-background:new 0 0 40.7 40.7;" xml:space="preserve">
<style type="text/css">
	.st0{fill:#F7941E;}
	.st1{fill:#F1F2F2;}
	.st2{fill:#FCB23A;}
	.st3{fill:#D1D3D4;}
	.st4{fill:#6B5949;}
</style>
<rect id="XMLID_174_" x="10.6" y="11.4" class="st0" width="20.4" height="2.9"/>
<polygon id="XMLID_175_" class="st1" points="10.6,14.3 8.7,29.3 29.3,29.3 31,14.3 "/>
<rect id="XMLID_184_" x="31" y="11.4" class="st2" width="1.1" height="2.9"/>
<polygon id="XMLID_185_" class="st3" points="32.1,14.3 32.1,29.3 29.3,29.3 31,14.3 "/>
<polygon id="XMLID_193_" class="st3" points="15.4,19.7 13.6,19.7 13.8,17.8 15.6,17.8 "/>
<polygon id="XMLID_200_" class="st3" points="18,19.7 16.2,19.7 16.4,17.8 18.2,17.8 "/>
<polygon id="XMLID_221_" class="st3" points="20.7,19.7 18.9,19.7 19.1,17.8 20.9,17.8 "/>
<polygon id="XMLID_220_" class="st3" points="23.3,19.7 21.5,19.7 21.7,17.8 23.5,17.8 "/>
<polygon id="XMLID_227_" class="st0" points="26.1,19.7 24.3,19.7 24.5,17.8 26.3,17.8 "/>
<polygon id="XMLID_216_" class="st3" points="15,22.4 13.2,22.4 13.5,20.6 15.3,20.6 "/>
<polygon id="XMLID_215_" class="st0" points="17.6,22.4 15.8,22.4 16.1,20.6 17.9,20.6 "/>
<polygon id="XMLID_214_" class="st3" points="20.3,22.4 18.5,22.4 18.8,20.6 20.6,20.6 "/>
<polygon id="XMLID_213_" class="st3" points="22.9,22.4 21.1,22.4 21.4,20.6 23.2,20.6 "/>
<polygon id="XMLID_208_" class="st0" points="25.8,22.4 24,22.4 24.2,20.6 26,20.6 "/>
<polygon id="XMLID_223_" class="st3" points="14.7,25.2 12.9,25.2 13.1,23.3 14.9,23.3 "/>
<polygon id="XMLID_222_" class="st3" points="17.3,25.2 15.5,25.2 15.7,23.3 17.5,23.3 "/>
<polygon id="XMLID_219_" class="st3" points="20,25.2 18.2,25.2 18.4,23.3 20.2,23.3 "/>
<polygon id="XMLID_218_" class="st3" points="22.6,25.2 20.8,25.2 21,23.3 22.8,23.3 "/>
<polygon id="XMLID_217_" class="st0" points="25.4,25.2 23.6,25.2 23.8,23.3 25.6,23.3 "/>
<polygon id="XMLID_376_" class="st4" points="14.8,15.6 14,15.6 14.2,14.3 15,14.3 "/>
<rect id="XMLID_353_" x="14.2" y="13.2" class="st4" width="0.8" height="1.1"/>
<polygon id="XMLID_238_" class="st4" points="26.6,15.6 25.9,15.6 26.1,14.3 26.8,14.3 "/>
<rect id="XMLID_234_" x="26.1" y="13.2" class="st4" width="0.8" height="1.1"/>
</svg>
