<?xml version="1.0" encoding="utf-8"?>
<!-- Generator: Adobe Illustrator 19.0.0, SVG Export Plug-In . SVG Version: 6.00 Build 0)  -->
<svg version="1.1" id="Layer_1" xmlns="http://www.w3.org/2000/svg" xmlns:xlink="http://www.w3.org/1999/xlink" x="0px" y="0px"
	 viewBox="0 0 34 40.7" style="enable-background:new 0 0 34 40.7;" xml:space="preserve">
<style type="text/css">
	.st0{fill:#FCB23A;}
	.st1{fill:#59718D;}
	.st2{fill:#F7941E;}
</style>
<path id="XMLID_1457_" class="st0" d="M9.9,34.6c1.9,0.8,4.3-0.6,5.4-3.2c0.8-2,0.6-4.1-0.5-5.3l4.7-3.5c0,0,1.9-9.5,1.7-13.2
	c-0.2-3.8-1.4-5.8-1.4-5.8l-3.9,19l-2.5,2.6c-1.9-0.5-4.1,0.9-5.1,3.3C7.2,31.1,7.9,33.8,9.9,34.6z M9.9,29.2c0.6-1.6,1.9-2.5,3.1-2
	c1.2,0.5,1.4,2,0.8,3.6c-0.7,1.6-1.9,2.4-3.1,1.9C9.4,32.2,9.3,30.8,9.9,29.2z"/>
<path id="XMLID_1249_" class="st1" d="M24.9,19c-2.4,0-5.4-1.5-8.6-4.4c-1.9-1.8-3.6-2.5-5.1-2c-2.4,0.7-3.8,4.7-4.1,6.1l-1.9-0.5
	c0.1-0.3,1.5-6.3,5.5-7.6c2.1-0.7,4.5,0.2,7,2.5c4.3,4,7.4,4.3,8.8,3.4c1.1-0.7,1.3-2.5,0.5-4.5l1.9-0.7c1.1,2.9,0.7,5.5-1.3,6.9
	C26.8,18.7,25.9,19,24.9,19z"/>
<path id="XMLID_1246_" class="st2" d="M27,28.6c-1-2.4-3.2-3.8-5.1-3.3l-2.5-2.6l-3.9-19c0,0-1.2,2-1.4,5.8s1.7,13.2,1.7,13.2
	l4.7,3.5c-1.1,1.2-1.3,3.3-0.5,5.3c1.1,2.6,3.5,4,5.4,3.2C27.3,33.8,28,31.1,27,28.6z M24.7,32.7c-1.2,0.5-2.4-0.3-3.1-1.9
	c-0.7-1.6-0.4-3.1,0.8-3.6c1.2-0.5,2.5,0.4,3.1,2C25.9,30.8,25.8,32.2,24.7,32.7z"/>
<circle id="XMLID_1245_" class="st0" cx="17.5" cy="22.2" r="0.4"/>
</svg>
