<?xml version="1.0" encoding="utf-8"?>
<!-- Generator: Adobe Illustrator 19.0.0, SVG Export Plug-In . SVG Version: 6.00 Build 0)  -->
<svg version="1.1" id="Layer_1" xmlns="http://www.w3.org/2000/svg" xmlns:xlink="http://www.w3.org/1999/xlink" x="0px" y="0px"
	 viewBox="0 0 40.7 40.7" style="enable-background:new 0 0 40.7 40.7;" xml:space="preserve">
<style type="text/css">
	.st0{fill:#FCB23A;}
	.st1{fill:#F7941E;}
</style>
<path id="XMLID_597_" class="st0" d="M33.9,15.8l-7.8-1.1l-3.5-7.1c-0.3-0.5-0.8-0.8-1.3-0.8h-2.2v1.9h0.4l-2.9,6l-7.8,1.1
	c-1.2,0.2-1.6,1.6-0.8,2.4l5.6,5.5l-1.3,7.5h-0.7v1.9h2.2v0c0.2,0,0.3-0.1,0.5-0.1l7-3.7l5.5,2.9v1h2.2v0c0.8,0,1.5-0.8,1.3-1.7
	l-1.3-7.8l5.6-5.5C35.6,17.4,35.1,16,33.9,15.8z"/>
<path id="XMLID_578_" class="st1" d="M20.6,7.6l3.5,7.1l7.8,1.1c1.2,0.2,1.6,1.6,0.8,2.4L27,23.7l1.3,7.8c0.2,1.2-1,2.1-2.1,1.5
	l-7-3.7l-7,3.7c-1,0.6-2.3-0.3-2.1-1.5l1.3-7.8l-5.6-5.5c-0.8-0.8-0.4-2.3,0.8-2.4l7.8-1.1L18,7.6C18.5,6.5,20,6.5,20.6,7.6z"/>
</svg>
