<?xml version="1.0" encoding="utf-8"?>
<!-- Generator: Adobe Illustrator 19.0.0, SVG Export Plug-In . SVG Version: 6.00 Build 0)  -->
<svg version="1.1" id="Layer_1" xmlns="http://www.w3.org/2000/svg" xmlns:xlink="http://www.w3.org/1999/xlink" x="0px" y="0px"
	 viewBox="0 0 40.7 40.7" style="enable-background:new 0 0 40.7 40.7;" xml:space="preserve">
<style type="text/css">
	.st0{fill:#FCB23A;}
	.st1{fill:#F7941E;}
	.st2{fill:#FFFFFF;}
	.st3{fill:#59718D;}
</style>
<path id="XMLID_1423_" class="st0" d="M35.8,11.5H6.2v2.6c0,1.9,1.5,3.4,3.4,3.4h22.9c1.9,0,3.4-1.5,3.4-3.4V11.5z"/>
<rect id="XMLID_1422_" x="5.1" y="10.3" class="st0" width="30.7" height="1.3"/>
<path id="XMLID_1421_" class="st1" d="M34.7,11.5H5.1v2.6c0,1.9,1.5,3.4,3.4,3.4h22.9c1.9,0,3.4-1.5,3.4-3.4V11.5z"/>
<path id="XMLID_1420_" class="st0" d="M35.8,29.5H6.2v-8.6c0-1.9,1.5-3.4,3.4-3.4h22.9c1.9,0,3.4,1.5,3.4,3.4V29.5z"/>
<rect id="XMLID_1419_" x="5.1" y="29.5" class="st0" width="30.7" height="1.3"/>
<path id="XMLID_1362_" class="st1" d="M34.7,29.5H5.1v-8.6c0-1.9,1.5-3.4,3.4-3.4h22.9c1.9,0,3.4,1.5,3.4,3.4V29.5z"/>
<path id="XMLID_1357_" class="st2" d="M14,27.8c-2.2,0-4-1.8-4-4c0-2.2,1.8-4,4-4s4,1.8,4,4C18,26,16.2,27.8,14,27.8z M14,20.8
	c-1.6,0-3,1.3-3,3s1.3,3,3,3s3-1.3,3-3S15.7,20.8,14,20.8z"/>
<path id="XMLID_1661_" class="st2" d="M25,27.8c-2.2,0-4-1.8-4-4c0-2.2,1.8-4,4-4s4,1.8,4,4C29,26,27.2,27.8,25,27.8z M25,20.8
	c-1.6,0-3,1.3-3,3s1.3,3,3,3s3-1.3,3-3S26.7,20.8,25,20.8z"/>
<path id="XMLID_1662_" class="st2" d="M21.6,22.5c-0.2,0-0.3-0.1-0.4-0.2c0,0-0.5-0.7-1.6-0.7s-1.6,0.7-1.6,0.7
	c-0.2,0.2-0.5,0.3-0.7,0.1c-0.2-0.1-0.3-0.5-0.2-0.7c0,0,0.8-1.2,2.4-1.2s2.4,1.2,2.4,1.2c0.1,0.2,0.1,0.5-0.2,0.7
	C21.7,22.5,21.7,22.5,21.6,22.5z"/>
<path id="XMLID_1355_" class="st3" d="M13.4,18.1h-3.2c-0.3,0-0.6-0.3-0.6-0.6v0c0-0.3,0.3-0.6,0.6-0.6h3.2c0.3,0,0.6,0.3,0.6,0.6v0
	C14,17.8,13.7,18.1,13.4,18.1z"/>
<path id="XMLID_1354_" class="st3" d="M29.2,18.1H26c-0.3,0-0.6-0.3-0.6-0.6v0c0-0.3,0.3-0.6,0.6-0.6h3.2c0.3,0,0.6,0.3,0.6,0.6v0
	C29.8,17.8,29.5,18.1,29.2,18.1z"/>
</svg>
