<?xml version="1.0" encoding="utf-8"?>
<!-- Generator: Adobe Illustrator 19.0.0, SVG Export Plug-In . SVG Version: 6.00 Build 0)  -->
<svg version="1.1" id="Layer_1" xmlns="http://www.w3.org/2000/svg" xmlns:xlink="http://www.w3.org/1999/xlink" x="0px" y="0px"
	 viewBox="0 0 40.7 40.7" style="enable-background:new 0 0 40.7 40.7;" xml:space="preserve">
<style type="text/css">
	.st0{fill:#FCB23A;}
	.st1{fill:#F1F2F2;}
	.st2{fill:#F7941E;}
	.st3{fill:#F4F3F6;}
	.st4{fill:#F0F8F9;}
	.st5{fill:#393B3E;}
</style>
<path id="XMLID_1467_" class="st0" d="M29.3,31H14c-2.3,0-4.2-1.9-4.2-4.2V7.9h19.5V31z"/>
<path id="XMLID_1466_" class="st1" d="M28.4,31H13.1c-2.3,0-4.2-1.9-4.2-4.2V7.9h19.5V31z"/>
<rect id="XMLID_1465_" x="25.9" y="7.9" class="st2" width="2.5" height="23.1"/>
<rect id="XMLID_1272_" x="25.9" y="6.6" transform="matrix(0.7071 0.7071 -0.7071 0.7071 19.5215 -14.8526)" class="st0" width="3.7" height="19"/>
<rect id="XMLID_1271_" x="26.8" y="7" transform="matrix(0.7071 0.7071 -0.7071 0.7071 19.896 -15.0077)" class="st2" width="2.6" height="19"/>
<polygon id="XMLID_1269_" class="st3" points="19.7,21.6 18,25.9 22.3,24.1 "/>
<polygon id="XMLID_1268_" class="st4" points="20.4,22.3 18,25.9 22.3,24.1 "/>
<polygon id="XMLID_1267_" class="st5" points="18.6,24.3 19.5,25.2 18,25.9 "/>
</svg>
