<?xml version="1.0" encoding="utf-8"?>
<!-- Generator: Adobe Illustrator 19.0.0, SVG Export Plug-In . SVG Version: 6.00 Build 0)  -->
<svg version="1.1" id="Layer_1" xmlns="http://www.w3.org/2000/svg" xmlns:xlink="http://www.w3.org/1999/xlink" x="0px" y="0px"
	 viewBox="0 0 40.7 40.7" style="enable-background:new 0 0 40.7 40.7;" xml:space="preserve">
<style type="text/css">
	.st0{fill:#3D556D;}
	.st1{fill:#59718D;}
	.st2{fill:#F7941E;}
	.st3{fill:#FFFFFF;}
</style>
<g id="XMLID_1431_">
	<path id="XMLID_1432_" class="st0" d="M20.6,8.1v19.1c0,0,0,0,0.1,0c0.2,0,0.4,0.2,0.4,0.4c0,0.2-0.2,0.4-0.4,0.4c0,0,0,0-0.1,0
		v0.9c0,0,0,0,0.1,0c0.2,0,0.4,0.2,0.4,0.4s-0.2,0.4-0.4,0.4c0,0,0,0-0.1,0v0.9c0,0,0,0,0.1,0c0.2,0,0.4,0.2,0.4,0.4
		c0,0.2-0.2,0.4-0.4,0.4c0,0,0,0-0.1,0v2.8h0.9c0.7,0,1.3-0.6,1.3-1.3V8.1H20.6z"/>
</g>
<path id="XMLID_1430_" class="st1" d="M20.3,31c0-0.2,0.2-0.4,0.4-0.4v-0.9c-0.2,0-0.4-0.2-0.4-0.4s0.2-0.4,0.4-0.4V28
	c-0.2,0-0.4-0.2-0.4-0.4c0-0.2,0.2-0.4,0.4-0.4V8.1h-2.2v24.7c0,0.7,0.6,1.3,1.3,1.3h0.9v-2.8C20.4,31.3,20.3,31.2,20.3,31z"/>
<circle id="XMLID_1322_" class="st2" cx="20.6" cy="20.3" r="5.1"/>
<circle id="XMLID_1321_" class="st3" cx="20.6" cy="20.3" r="4.3"/>
<path id="XMLID_1320_" class="st0" d="M24.2,20.3l-3.3,0l-1.7-2.9c-0.1-0.1-0.2-0.1-0.3-0.1c-0.1,0.1-0.1,0.2-0.1,0.3l1.7,3
	l-1.8,3.1c0,0,0,0.1,0,0.1c0,0,0,0,0.1,0c0,0,0.1,0,0.1,0l1.8-3.1c0,0,0,0,0,0c0,0,0,0,0,0l3.4,0h0c0.1,0,0.2-0.1,0.2-0.2
	C24.4,20.4,24.3,20.3,24.2,20.3z"/>
</svg>
