<?xml version="1.0" encoding="utf-8"?>
<!-- Generator: Adobe Illustrator 19.0.0, SVG Export Plug-In . SVG Version: 6.00 Build 0)  -->
<svg version="1.1" id="Layer_1" xmlns="http://www.w3.org/2000/svg" xmlns:xlink="http://www.w3.org/1999/xlink" x="0px" y="0px"
	 viewBox="0 0 40.7 40.7" style="enable-background:new 0 0 40.7 40.7;" xml:space="preserve">
<style type="text/css">
	.st0{fill:#FCB23A;}
	.st1{fill:#3D556D;}
	.st2{fill:#F7941E;}
	.st3{fill:#59718D;}
</style>
<path id="XMLID_1425_" class="st0" d="M30.3,15.9h-19c-0.7,0-1.2-0.5-1.2-1.2v0c0-0.7,0.5-1.2,1.2-1.2h19c0.7,0,1.2,0.5,1.2,1.2v0
	C31.5,15.4,31,15.9,30.3,15.9z"/>
<path id="XMLID_1424_" class="st1" d="M11,15.8v4.2L7.1,27c-0.2,0.4-0.4,0.9-0.4,1.4v0c0,1.6,1.3,2.9,2.9,2.9l22.6,0.4
	c0,0,2.6-1.7,2.6-3.3v-0.1c0-0.5-0.1-1-0.4-1.4l-3.9-7.2v-3.9L11,15.8z"/>
<path id="XMLID_1353_" class="st2" d="M29,16.7H10c-0.7,0-1.2-0.5-1.2-1.2v0c0-0.7,0.5-1.2,1.2-1.2h19c0.7,0,1.2,0.5,1.2,1.2v0
	C30.2,16.2,29.7,16.7,29,16.7z"/>
<circle id="XMLID_1352_" class="st2" cx="18.5" cy="11.6" r="1.2"/>
<circle id="XMLID_1351_" class="st2" cx="22.1" cy="11.6" r="1.2"/>
<path id="XMLID_1350_" class="st2" d="M19.8,14.7l-0.7-0.3c0,0,0,0,0,0c0,0,0.1-0.3,0-0.9C19,12.8,18.6,12,18.6,12l0.7-0.3
	c0,0,0.4,0.9,0.6,1.7C20,14.3,19.9,14.7,19.8,14.7z"/>
<path id="XMLID_1349_" class="st2" d="M20.9,14.7c0-0.1-0.2-0.5,0-1.3c0.2-0.8,0.5-1.6,0.6-1.7l0.7,0.3c0,0-0.4,0.8-0.5,1.5
	c-0.1,0.6,0,0.9,0,0.9L20.9,14.7z"/>
<path id="XMLID_1348_" class="st3" d="M9.8,16.7v4.2l-3.9,6.9c-0.2,0.4-0.4,0.9-0.4,1.4v0c0,1.6,1.3,2.9,2.9,2.9h22.3
	c1.6,0,2.9-1.3,2.9-2.9v-0.1c0-0.5-0.1-1-0.4-1.4l-3.9-7.2v-3.9L9.8,16.7z"/>
</svg>
