<?xml version="1.0" encoding="utf-8"?>
<!-- Generator: Adobe Illustrator 19.0.0, SVG Export Plug-In . SVG Version: 6.00 Build 0)  -->
<svg version="1.1" id="Layer_1" xmlns="http://www.w3.org/2000/svg" xmlns:xlink="http://www.w3.org/1999/xlink" x="0px" y="0px"
	 viewBox="0 0 40.7 40.7" style="enable-background:new 0 0 40.7 40.7;" xml:space="preserve">
<style type="text/css">
	.st0{fill:#59718D;}
	.st1{fill:#FCB23A;}
	.st2{fill:#FFFFFF;}
</style>
<path id="XMLID_2268_" class="st0" d="M31.5,26.5H13.6V15.3L32.1,15l0.9,9.8C33.1,25.7,32.4,26.5,31.5,26.5z"/>
<path id="XMLID_2267_" class="st1" d="M35.3,19.7c0.1,1.2-0.5,2.3-1.5,2.9c-2.5,1.5-7.9,3.9-16.6,3.9c-3.8,0-4.7,0-7.8,0
	c-1.5,0-2.8-1.6-2.8-3.6v-5.5c0-1.3,1-2.3,2.3-2.3h8.5c7.3,0,13-2.5,15.6-3.9c0.7-0.4,1.6,0.1,1.7,0.9L35.3,19.7z"/>
<circle id="XMLID_2266_" class="st2" cx="15.7" cy="20.4" r="1.4"/>
<ellipse id="XMLID_2265_" class="st2" cx="21.5" cy="19.9" rx="1.3" ry="1.4"/>
<ellipse id="XMLID_2264_" transform="matrix(0.9886 -0.1508 0.1508 0.9886 -2.5223 4.3496)" class="st2" cx="27.4" cy="18.8" rx="1.3" ry="1.4"/>
</svg>
