<?xml version="1.0" encoding="utf-8"?>
<!-- Generator: Adobe Illustrator 19.0.0, SVG Export Plug-In . SVG Version: 6.00 Build 0)  -->
<svg version="1.1" id="Layer_1" xmlns="http://www.w3.org/2000/svg" xmlns:xlink="http://www.w3.org/1999/xlink" x="0px" y="0px"
	 viewBox="0 0 40.7 40.7" style="enable-background:new 0 0 40.7 40.7;" xml:space="preserve">
<style type="text/css">
	.st0{fill:#3D556D;}
	.st1{fill:#59718D;}
	.st2{fill:#FFFFFF;}
	.st3{font-family:'Cormorant-BoldItalic';}
	.st4{font-size:13.0753px;}
	.st5{fill:#FCB23A;}
	.st6{fill:#F7941E;}
	.st7{fill:#FDC065;}
	.st8{fill:#7B6B5A;}
</style>
<rect id="XMLID_1452_" x="31.3" y="10.8" class="st0" width="4.1" height="22.5"/>
<path id="XMLID_1451_" class="st1" d="M34.3,24.1v9.2H20.5c-1.4,0-2.6-1.1-2.6-2.6V13.4c0-1.4,1.1-2.6,2.6-2.6h13.9v9.3V24.1z"/>
<text id="XMLID_1450_" transform="matrix(1 0 0 1 25.3559 26.1847)" class="st2 st3 st4">A</text>
<rect id="XMLID_1398_" x="22.8" y="4.9" class="st5" width="5.2" height="28.5"/>
<path id="XMLID_1397_" class="st6" d="M27.3,21.7v11.7H9.8c-1.8,0-3.2-1.4-3.2-3.2v-22c0-1.8,1.4-3.2,3.2-3.2h17.5v11.7V21.7z"/>
<path id="XMLID_1287_" class="st7" d="M22.6,18.1c-0.2-1.2-1-1.6-3.1-1.4c-2,0.2-9.5,0.7-9.8,1.3c-0.5,0.7-0.5,3.5-0.2,5
	c0.1,0.7,0.6,1.3,1.3,1.5c0.1,0,0.2,0.1,0.3,0.1c0,0.2,0,0.6,0.3,1.1c0.3,0.7,1.3,1.3,1.9,1.7c0.1,0.1,0.3-0.1,0.2-0.2
	c-0.3-0.4-0.6-1.1-0.5-1.5c0.1-0.2,0.1-0.3,0.2-0.4c2.1,0.6,4.5,1.3,5.4,1.4c1.7,0.1,2.4,0.5,3-1.6C22.1,22.9,22.8,19.2,22.6,18.1z"
	/>
<path id="XMLID_1286_" class="st2" d="M19.2,8.6c-3.3,0-5.8,2-5.8,4.5c0,1.9,1.2,3.3,3.3,3.9c0,0.3,0,0.9-0.3,1.2
	c-0.3,0.3-0.5,0.5-0.6,0.6c0,0,0,0.1,0,0.1c0.4,0.1,1.5,0.1,2.3-0.6c0.3-0.4,0.5-0.7,0.6-1c0.1,0,0.3,0,0.5,0c4.7,0,6.8-1.7,6.8-4.2
	S22.6,8.6,19.2,8.6z"/>
<ellipse id="XMLID_1285_" class="st8" cx="17.2" cy="13.1" rx="0.6" ry="0.5"/>
<ellipse id="XMLID_1284_" class="st8" cx="19.4" cy="13.1" rx="0.6" ry="0.5"/>
<ellipse id="XMLID_1283_" class="st8" cx="21.5" cy="13.1" rx="0.6" ry="0.5"/>
<ellipse id="XMLID_1282_" class="st8" cx="13.4" cy="21.4" rx="0.6" ry="0.5"/>
<ellipse id="XMLID_1281_" class="st8" cx="15.6" cy="21.4" rx="0.6" ry="0.5"/>
<ellipse id="XMLID_1280_" class="st8" cx="17.8" cy="21.4" rx="0.6" ry="0.5"/>
</svg>
