<?xml version="1.0" encoding="utf-8"?>
<!-- Generator: Adobe Illustrator 19.0.0, SVG Export Plug-In . SVG Version: 6.00 Build 0)  -->
<svg version="1.1" id="Layer_1" xmlns="http://www.w3.org/2000/svg" xmlns:xlink="http://www.w3.org/1999/xlink" x="0px" y="0px"
	 viewBox="0 0 40.7 40.7" style="enable-background:new 0 0 40.7 40.7;" xml:space="preserve">
<style type="text/css">
	.st0{fill:#FCB23A;}
	.st1{fill:#F7941E;}
</style>
<path id="XMLID_532_" class="st0" d="M22.9,11.3c-0.1,0-0.1,0-0.2,0c0-0.2,0.1-0.4,0.1-0.6c0-1.4-1.1-2.5-2.5-2.5
	c-1.4,0-2.5,1.1-2.5,2.5c0,0.2,0,0.4,0.1,0.6c0,0-0.1,0-0.1,0c-1.4,0-2.5,1.1-2.5,2.5c0,1.4,1.1,2.5,2.5,2.5c1.4,0,2.5-1.1,2.5-2.5
	c0-0.2,0-0.4-0.1-0.6c0,0,0.1,0,0.1,0c0.1,0,0.1,0,0.2,0c0,0.2-0.1,0.4-0.1,0.6c0,1.4,1.1,2.5,2.5,2.5c1.4,0,2.5-1.1,2.5-2.5
	C25.4,12.4,24.3,11.3,22.9,11.3z M17.8,14.7c-0.5,0-1-0.4-1-1c0-0.5,0.4-1,1-1c0.5,0,1,0.4,1,1C18.7,14.3,18.3,14.7,17.8,14.7z
	 M20.3,11.6c-0.5,0-1-0.4-1-1c0-0.5,0.4-1,1-1c0.5,0,1,0.4,1,1C21.3,11.2,20.8,11.6,20.3,11.6z M22.9,14.7c-0.5,0-1-0.4-1-1
	c0-0.5,0.4-1,1-1s1,0.4,1,1C23.9,14.3,23.5,14.7,22.9,14.7z"/>
<polygon id="XMLID_537_" class="st0" points="19.7,25.2 19.7,12.2 21.3,12.2 21.3,25.2 21.1,25.5 19.9,25.5 "/>
<path id="XMLID_538_" class="st0" d="M19.8,30.6v-5.2H21v5.2c0,0.3-0.3,0.6-0.6,0.6h0C20.1,31.2,19.8,30.9,19.8,30.6z"/>
<rect id="XMLID_540_" x="17.7" y="25.7" class="st0" width="0.3" height="4.5"/>
<path id="XMLID_521_" class="st1" d="M23.3,11.3c-0.1,0-0.1,0-0.2,0c0-0.2,0.1-0.4,0.1-0.6c0-1.4-1.1-2.5-2.5-2.5
	c-1.4,0-2.5,1.1-2.5,2.5c0,0.2,0,0.4,0.1,0.6c0,0-0.1,0-0.1,0c-1.4,0-2.5,1.1-2.5,2.5c0,1.4,1.1,2.5,2.5,2.5c0.7,0,1.3-0.3,1.8-0.7
	v9.7l0.2,0.2v5.2c0,0.3,0.3,0.6,0.6,0.6c0.3,0,0.6-0.3,0.6-0.6v-5.1h0l0.3-0.3v-9.6c0.4,0.4,1,0.6,1.7,0.6c1.4,0,2.5-1.1,2.5-2.5
	C25.8,12.4,24.7,11.3,23.3,11.3z M18.2,14.7c-0.5,0-1-0.4-1-1c0-0.5,0.4-1,1-1c0.5,0,1,0.4,1,1C19.1,14.3,18.7,14.7,18.2,14.7z
	 M20.7,11.6c-0.5,0-1-0.4-1-1c0-0.5,0.4-1,1-1c0.5,0,1,0.4,1,1C21.6,11.2,21.2,11.6,20.7,11.6z M23.3,14.7c-0.5,0-1-0.4-1-1
	c0-0.5,0.4-1,1-1s1,0.4,1,1C24.3,14.3,23.8,14.7,23.3,14.7z"/>
<rect id="XMLID_524_" x="17.9" y="25.7" class="st1" width="2" height="4.5"/>
<rect id="XMLID_525_" x="17.2" y="26.1" class="st1" width="0.9" height="2.2"/>
<rect id="XMLID_527_" x="16.7" y="25.7" class="st1" width="0.5" height="4.5"/>
<rect id="XMLID_539_" x="16.5" y="25.7" class="st0" width="0.2" height="4.5"/>
</svg>
