<?xml version="1.0" encoding="utf-8"?>
<!-- Generator: Adobe Illustrator 19.0.0, SVG Export Plug-In . SVG Version: 6.00 Build 0)  -->
<svg version="1.1" id="Layer_1" xmlns="http://www.w3.org/2000/svg" xmlns:xlink="http://www.w3.org/1999/xlink" x="0px" y="0px"
	 viewBox="0 0 40.7 40.7" style="enable-background:new 0 0 40.7 40.7;" xml:space="preserve">
<style type="text/css">
	.st0{fill:#FCB23A;}
	.st1{fill:#6B5949;}
	.st2{fill:#FFFFFF;}
	.st3{fill:#F7941E;}
	.st4{fill:#DA8427;}
</style>
<path id="XMLID_421_" class="st0" d="M34.7,35.8H9.4c-2.3,0-4.1-1.8-4.1-4.1V11h29.3V35.8z"/>
<circle id="XMLID_425_" class="st1" cx="13" cy="15.5" r="1.1"/>
<circle id="XMLID_430_" class="st1" cx="27.1" cy="15.5" r="1.1"/>
<path id="XMLID_444_" class="st2" d="M20,28.9c-4.2,0-7.6-3.4-7.6-7.6v-5.9c0-0.3,0.2-0.5,0.5-0.5s0.5,0.2,0.5,0.5v5.9
	c0,3.6,3,6.6,6.6,6.6c3.6,0,6.6-3,6.6-6.6v-5.9c0-0.3,0.2-0.5,0.5-0.5s0.5,0.2,0.5,0.5v5.9C27.6,25.5,24.2,28.9,20,28.9z"/>
<rect id="XMLID_422_" x="6.9" y="4.8" class="st3" width="26.1" height="6.2"/>
<polygon id="XMLID_424_" class="st4" points="5.3,11 11,8.1 11,11 "/>
<polygon id="XMLID_426_" class="st0" points="6.8,10.2 6.8,4.8 11,8.1 "/>
<polygon id="XMLID_428_" class="st4" points="34.5,11 28.8,8.1 28.8,11 "/>
<polygon id="XMLID_427_" class="st0" points="33,10.2 33,4.8 28.8,8.1 "/>
</svg>
