<?xml version="1.0" encoding="utf-8"?>
<!-- Generator: Adobe Illustrator 19.0.0, SVG Export Plug-In . SVG Version: 6.00 Build 0)  -->
<svg version="1.1" id="Layer_1" xmlns="http://www.w3.org/2000/svg" xmlns:xlink="http://www.w3.org/1999/xlink" x="0px" y="0px"
	 viewBox="0 0 40.7 40.7" style="enable-background:new 0 0 40.7 40.7;" xml:space="preserve">
<style type="text/css">
	.st0{fill:#F1F2F2;}
	.st1{fill:#D1D3D4;}
	.st2{fill:#F7941E;}
</style>
<path id="XMLID_265_" class="st0" d="M15.4,34.1h16.3V5.6H10.9v24C10.9,32.1,12.9,34.1,15.4,34.1z"/>
<rect id="XMLID_321_" x="10.5" y="4.7" transform="matrix(0.7071 -0.7071 0.7071 0.7071 -0.8547 9.5599)" class="st1" width="1.2" height="2.2"/>
<rect id="XMLID_323_" x="30.9" y="4.7" transform="matrix(-0.7071 -0.7071 0.7071 -0.7071 49.7852 32.245)" class="st1" width="1.2" height="2.2"/>
<path id="XMLID_333_" class="st2" d="M20.7,22.4l1.6-0.8c2.2-1.1,4.7-1.4,7-0.8c0-0.1,0-0.2,0-0.3c0-4.5-3.6-8.1-8.1-8.1
	s-8.1,3.6-8.1,8.1c0,1,0.2,1.9,0.5,2.8C16.1,23.8,18.5,23.5,20.7,22.4z"/>
</svg>
