<svg id="Layer_1" xmlns="http://www.w3.org/2000/svg" viewBox="-389.3 463.7 101.4 69"><style>.st0{fill:#555655}.st1{fill:#f7941e}</style><g id="XMLID_3433_"><path id="XMLID_3434_" class="st0" d="M-387.2 514.3l-.3 2.4c0 1.3.1 3.5.4 6.5.3 3 .6 4.8.9 5.3.6.9 1.5 1.3 2.6 1.3s2-.3 2.5-1c.2 0 .5 0 .8-.1l.2.2c0 1.1-.8 1.7-2.5 2.1-.4.1-.8.1-1.3.1s-1.1-.2-1.8-.7-1.2-1-1.4-1.6c-.3-.6-.6-2.5-.8-5.6-.3-3.1-.4-5.9-.4-8.3s.1-3.8.2-4.2c-.1-.4-.1-.7-.1-1.1 0-1.3.5-2.4 1.4-3.1.9-.7 2.1-1.1 3.5-1.1.4 0 .8.1 1.2.4.4.2.7.5.7.9 0 .2-.2.4-.5.4-.1 0-.2-.1-.4-.2s-.3-.2-.4-.2-.2 0-.4.1c-.3-.1-.5-.1-.8-.1-.3 0-.6.1-1 .2s-.7.3-1 .4c-.3.2-.5.4-.6.7-.2.3-.3.6-.4.9-.1.3-.2.6-.2 1.1-.1.6-.1 1.4-.1 2.3v2z"/><path id="XMLID_3436_" class="st0" d="M-365.2 523.7v2.1c0 1.9-.2 3.2-.7 4.1-.2.4-.5.7-.9.9-.4.3-.9.4-1.5.4s-1.2-.2-1.7-.5-.9-.7-1.2-1.2-.5-1.1-.7-1.7c-.2-.7-.4-1.3-.4-1.9-.2-1.5-.5-2.5-.7-3 0-1.8-.1-4.4-.3-7.9s-.3-6.1-.3-7.9l-.4-.6c0-.2.1-.3.2-.4s.2-.2.4-.2c.5 0 .8.8.8 2.4l.3 11.2c.1.1.1.4.2.8.1 1.5.2 2.5.3 2.9 0 .3-.1.5-.1.8 0 .3.1.8.3 1.5.2.7.5 1.4.8 2.1.3.7.8 1.3 1.3 1.8s1 .7 1.4.7.7 0 .9-.1c.2-.1.3-.2.5-.3.1-.1.2-.3.3-.5.1-.2.1-.4.1-.5s0-.3.1-.7v-.9l.1-1.1v-3.8l-.2-2-.2-5.9v-.3l-.1-.2c.1-.6.1-1.3.1-1.9l-.5-5.6c0-.2.1-.3.2-.4.1-.1.3-.1.5-.1l.6.5-.1.3.1.3-.2 2 .3 6 .2 5.7h.1v.7l.1 2.4z"/><path id="XMLID_3438_" class="st0" d="M-351.8 523l-.1 1.4c0 .1 0 .2.1.4-.2 1.5-.5 2.6-.9 3.3-.4.6-.8 1.1-1.2 1.5-.5.3-1.1.7-1.8 1-.2 0-.4.1-.6.2-.3.1-.5.2-.7.2-.9 0-1.3-.2-1.3-.5l.2-8.4-.2-13.8c0-1.6.3-2.4.9-2.4 1.5 0 2.7.5 3.4 1.5.8 1 1.2 2.3 1.2 3.9s-.7 3.4-2.1 5.3c.3.5.7 1 1.1 1.5l.9 1.2c.6.8.9 1.4 1 2 .1.6.1 1.1.1 1.7zm-5.5-14.6l.1 7.9h.1c.8 0 1.4-.4 1.9-1.3.4-.7.7-1.4 1-2.2.2-.7.4-1.2.5-1.4v-1.3c0-.8-.3-1.5-.8-2.2-.5-.7-1.2-1-1.9-1-.6 0-.9.5-.9 1.5zm.3 21.1h.2c.7 0 1.5-.3 2.4-1 .9-.7 1.4-1.3 1.5-1.8.1-.5.2-1.2.2-2 0-4-.9-6.3-2.8-7.1-.2 0-.5.1-.9.2s-.6.2-.8.2c.2 3.1.2 7 .2 11.5z"/><path id="XMLID_3442_" class="st0" d="M-341 530.5l-1-.2c-.2 0-.5.1-.8.4-.5 0-.8-.1-.9-.3h-.1c-1 0-1.6-.2-1.8-.6 0-.2.3-.4.8-.4h.7c.4 0 .7-.3.7-1 0-.6 0-1.4-.1-2.3-.1-.9-.1-1.8-.1-2.7 0-.9-.1-2.7-.2-5.3-.1-2.6-.2-4.5-.2-5.6v-3.9c0-1.1 0-1.7-.1-1.9l-1.1.2c-.2 0-.4-.2-.4-.5s.5-.6 1.5-.8 1.6-.3 2-.3c.6 0 .9.2.9.5 0 .4-.1.5-.4.5h-.8c-.4 0-.6.2-.7.5-.1.3-.1 1.1-.1 2.6s.1 4.2.4 8.4c.3 4.2.4 7.4.4 9.5v1.7l1.2-.1c.6 0 .9.3.9.8l-.7.8z"/><path id="XMLID_3444_" class="st0" d="M-333.9 506.4l-.1-.6c0-.2.2-.3.7-.3.9 0 1.6.3 2.1.8s.8 1 1 1.6c.2.6.3 1 .4 1.3.2.7.3 1.2.3 1.5 0 1.1-.3 2.4-.9 4-.4 1-.6 1.5-.6 1.6 0 1.1.4 3.2 1.3 6.5s1.6 5.6 2.1 7c0 .7-.1 1.1-.4 1.1-.2 0-.4-.1-.6-.3-.1-.2-.2-.3-.3-.3-.1-.9-.3-2.1-.8-3.6s-.8-2.6-.9-3.1c-.1-.5-.3-1.6-.6-3.1-.3-1.6-.5-2.8-.8-3.6l-.3-.2-.7.2v12.4l.1.8c0 .4-.2.7-.6.7-.2 0-.3-.1-.4-.2-.1-.1-.2-.2-.2-.4l.1-.2.1-20v-3.6zm1 .1l-.2 7.2c0 .9 0 1.7.1 2.1h.1c.2 0 .4-.2.9-.7.4-.5.7-.8.9-1.1.2-.3.3-.7.4-1.3s.1-1.1.1-1.6c0-.4 0-.8-.1-1.3s-.2-.9-.3-1.5c-.1-.5-.3-1-.6-1.3-.3-.3-.6-.5-1-.5v-.1l-.3.1z"/><path id="XMLID_3447_" class="st0" d="M-312.8 523.7v2.1c0 1.9-.2 3.2-.7 4.1-.2.4-.5.7-.9.9-.4.3-.9.4-1.5.4s-1.2-.2-1.7-.5-.9-.7-1.2-1.2c-.3-.5-.5-1.1-.7-1.7-.2-.7-.4-1.3-.4-1.9-.2-1.5-.5-2.5-.7-3 0-1.8-.1-4.4-.3-7.9-.2-3.5-.3-6.1-.3-7.9l-.2-.7c0-.2.1-.3.2-.4.1-.1.2-.2.4-.2.5 0 .8.8.8 2.4l.3 11.2c.1.1.1.4.2.8.1 1.5.2 2.5.3 2.9 0 .3-.1.5-.1.8s.1.8.3 1.5.5 1.4.8 2.1c.3.7.8 1.3 1.3 1.8s1 .7 1.4.7c.4 0 .7 0 .9-.1.2-.1.3-.2.5-.3.1-.1.2-.3.3-.5.1-.2.1-.4.1-.5 0-.1 0-.3.1-.7v-.9l.1-1.1v-3.8l-.2-2-.2-5.9v-.2l-.1-.2c.1-.6.1-1.3.1-1.9l-.3-5.6c0-.2.1-.3.2-.4.1-.1.3-.1.5-.1l.6.5-.1.3.1.3-.2 2 .3 6 .2 5.7h.1v.7l.1 2.3v.1h-.4z"/><path id="XMLID_3449_" class="st0" d="M-299.4 523l-.1 1.4c0 .1 0 .2.1.4-.2 1.5-.5 2.6-.9 3.3-.4.6-.8 1.1-1.2 1.5-.5.3-1.1.7-1.8 1-.2 0-.4.1-.6.2-.3.1-.5.2-.7.2-.9 0-1.3-.2-1.3-.5l.2-8.4-.2-13.8c0-1.6.3-2.4.9-2.4 1.5 0 2.7.5 3.4 1.5.8 1 1.2 2.3 1.2 3.9s-.7 3.4-2.1 5.3c.3.5.7 1 1.1 1.5l.9 1.2c.6.8.9 1.4 1 2 .1.6.1 1.1.1 1.7zm-5.5-14.6l.1 7.9h.1c.8 0 1.4-.4 1.9-1.3.4-.7.7-1.4 1-2.2.2-.7.4-1.2.5-1.4v-1.3c0-.8-.3-1.5-.8-2.2-.5-.7-1.2-1-1.9-1-.6 0-.9.5-.9 1.5zm.3 21.1h.2c.7 0 1.5-.3 2.4-1 .9-.7 1.4-1.3 1.5-1.8.1-.5.2-1.2.2-2 0-4-.9-6.3-2.8-7.1-.2 0-.5.1-.9.2s-.6.2-.8.2c.2 3.1.2 7 .2 11.5z"/><path id="XMLID_3453_" class="st0" d="M-288.6 530.5l-1-.2c-.2 0-.5.1-.8.4-.5 0-.8-.1-.9-.3h-.1c-1 0-1.6-.2-1.8-.6 0-.2.3-.4.8-.4h.7c.4 0 .7-.3.7-1 0-.6 0-1.4-.1-2.3-.1-.9-.1-1.8-.1-2.7 0-.9-.1-2.7-.2-5.3-.1-2.6-.2-4.5-.2-5.6v-3.9c0-1.1 0-1.7-.1-1.9l-1.1.2c-.2 0-.4-.2-.4-.5s.5-.6 1.5-.8 1.6-.3 2-.3c.6 0 .9.2.9.5 0 .4-.1.5-.4.5h-.8c-.4 0-.6.2-.7.5-.1.3-.1 1.1-.1 2.6s.1 4.2.4 8.4c.3 4.2.4 7.4.4 9.5v1.7l1.2-.1c.6 0 .9.3.9.8l-.7.8z"/></g><path id="XMLID_4033_" class="st1" d="M-342.7 500.1v-.3c0-.1 0-.2-.1-.3.7-.2 2.6-1 2.3-1.5-.3-.4-1.8.6-2.5 1.1 0 0-.1-.1-.2-.1.3-.8.9-2.4.3-2.5-.5-.1-.7 1.4-.8 2.3h-.3c-.1 0-.3 0-.4.1-.4-.6-1.2-1.8-1.5-1.5-.3.3.6 1.2 1.2 1.8-.1.1-.2.3-.3.5-.7-.4-2.3-1.2-2.5-.7-.1.5 1.6 1 2.4 1.2 0 .2.1.3.2.5-.6.3-2 1.1-1.7 1.5.3.3 1.5-.7 2-1.2.2.1.3.2.5.2h.2c.2 0 .3 0 .4-.1.3.5 1.4 2.6 1.8 2.2s-1-1.9-1.5-2.4c.1-.1.2-.3.2-.4v.1s2.5.5 2.5-.1c.2-.7-1.7-.5-2.2-.4z"/><path id="XMLID_4093_" class="st0" d="M-328.2 479.2h-.4l.1-7.1-4-.2c.4-1.2 2.3-7.6.5-7.4-1.6.2-2.4 5.3-2.7 7.3l-4.7-.3c-.1-1.1-1-7.7-2.7-7.8-1.9-.2.6 7.6.6 7.6l.7.1-5.8-.3-.7 19.8 18.4-.2.1-6.6h.3c.5 0 .9-.3.9-.8l.1-3.1c.2-.6-.2-1-.7-1zm-16.1 8.7l-2.1 2.1 1.1-17.5 15 1.4-14 14z"/></svg>