<svg id="Layer_1" xmlns="http://www.w3.org/2000/svg" viewBox="-49.5 39.2 28.5 22.2"><style>.st0{fill:#414242}</style><path id="XMLID_1240_" class="st0" d="M-24.1 41.9h-22.6c-.6 0-1.1.5-1.1 1.1 0 .6.5 1.1 1.1 1.1h22.6c.6 0 1.1-.5 1.1-1.1 0-.6-.5-1.1-1.1-1.1z"/><path id="XMLID_2489_" class="st0" d="M-24.1 48.9h-22.6c-.6 0-1.1.5-1.1 1.1 0 .6.5 1.1 1.1 1.1h22.6c.6 0 1.1-.5 1.1-1.1 0-.6-.5-1.1-1.1-1.1z"/><path id="XMLID_2939_" class="st0" d="M-24.1 56.1h-22.6c-.6 0-1.1.5-1.1 1.1 0 .6.5 1.1 1.1 1.1h22.6c.6 0 1.1-.5 1.1-1.1 0-.7-.5-1.1-1.1-1.1z"/></svg>