<svg id="Layer_1" xmlns="http://www.w3.org/2000/svg" viewBox="-495.6 492 19.1 17"><style>.st0{fill:red}</style><path class="st0" d="M-479.8 503.5h-9.8c-.3 0-.6-.2-.6-.5l-1.5-8.3h-1.5c-.4 0-.6-.3-.6-.6s.3-.6.6-.6h2.1c.3 0 .6.2.6.5l1.5 8.3h8.7l1-6.5c.1-.4.4-.6.7-.5.4.1.6.4.5.7l-1.1 7c0 .2-.2.5-.6.5z"/><path class="st0" d="M-478.9 497.9h-11.7c-.4 0-.6-.3-.6-.6s.3-.6.6-.6h11.7c.4 0 .7.3.7.6s-.3.6-.7.6zm-.4 2.6H-490c-.2 0-.4-.2-.4-.4s.2-.4.4-.4h10.7c.2 0 .4.2.4.4s-.2.4-.4.4z"/><path class="st0" d="M-486.2 503.2c-.2 0-.4-.2-.4-.4v-5.6c0-.2.2-.4.4-.4s.4.2.4.4v5.6c-.1.2-.2.4-.4.4zm2.8 0c-.2 0-.4-.2-.4-.4v-5.6c0-.2.2-.4.4-.4s.4.2.4.4v5.6c0 .2-.2.4-.4.4z"/><circle id="XMLID_695_" class="st0" cx="-488" cy="505.4" r="1.3"/><circle id="XMLID_696_" class="st0" cx="-481.3" cy="505.4" r="1.3"/></svg>