<svg id="Layer_1" xmlns="http://www.w3.org/2000/svg" viewBox="-54 18.3 25.7 25"><style>.st0{fill:#b6b6b6}</style><path id="XMLID_3160_" class="st0" d="M-41.5 39.9c-5.1 0-9.2-4.1-9.2-9.2s4.1-9.2 9.2-9.2 9.2 4.1 9.2 9.2-4.1 9.2-9.2 9.2zm0-16.8c-4.1 0-7.5 3.4-7.5 7.5s3.4 7.5 7.5 7.5 7.5-3.4 7.5-7.5-3.3-7.5-7.5-7.5z"/><g id="XMLID_3151_"><path id="XMLID_46_" class="st0" d="M-45.8 34.3v-7.2h3.5c1.3 0 2 .8 2 1.8 0 .9-.6 1.5-1.2 1.6.8.1 1.4.9 1.4 1.8 0 1.1-.7 1.9-2.1 1.9h-3.6zm4.3-5.1c0-.5-.4-.9-1-.9h-2v1.9h2c.6-.1 1-.5 1-1zm.1 3c0-.5-.4-1-1.1-1h-2.1v2h2.1c.7 0 1.1-.4 1.1-1z"/><path id="XMLID_44_" class="st0" d="M-38.9 34.3v-5.2h1.1v.8c.4-.5 1-.9 1.7-.9v1.1h-.4c-.5 0-1.1.3-1.3.7v3.5h-1.1z"/></g></svg>