<svg id="Layer_1" xmlns="http://www.w3.org/2000/svg" viewBox="0 0 34.5 33.7"><style>.st0{fill:#b1b0b1}</style><path id="XMLID_2438_" class="st0" d="M28.2 21l-2.4-2.3v-2.2l2.4-2.4c.2-.2.3-.5.1-.8l-2-3.2c-.2-.3-.5-.4-.8-.3L22.3 11l-1.3-.6-.7-3.4c-.1-.3-.3-.5-.6-.5H16c-.3 0-.6.2-.7.6l-.7 3.3-1.5.8-3-1.1c-.4-.1-.9 0-1.1.4l-1.7 2.8c-.2.4-.2.9.2 1.2l2.3 2.2v2.2l-2.4 2.3c-.3.3-.3.7-.1 1l1.8 2.9c.2.4.7.5 1.1.4l3-1.1 1.4.7.7 3.2c.1.4.4.6.8.6h3.4c.4 0 .8-.3.9-.8L21 25l1.5-.8 3 1.1c.4.1.8 0 1-.4l1.8-3c.2-.2.2-.6-.1-.9zm-10.8.5c-1.7-.2-3.1-1.5-3.2-3.2-.2-2.3 1.7-4.2 4-4 1.7.2 3.1 1.5 3.2 3.2.1 2.3-1.8 4.2-4 4z"/></svg>