<svg id="Layer_1" xmlns="http://www.w3.org/2000/svg" viewBox="0 0 41.2 34.5"><style>.st0{fill:#b0b0b0}</style><path id="XMLID_366_" class="st0" d="M6.2 28.2H35v3.2H6.2z"/><path id="XMLID_374_" class="st0" d="M25.5 7.2c.3-.3.3-.7 0-1l-2.8-2.8-1.5-1.5c-.2-.2-.6-.2-.9 0l-1.5 1.5L16 6.2c-.3.3-.3.7 0 1l1 1c.3.3.7.3 1 0l1.4-1.4v16.7c0 .4.3.7.7.7h1.4c.4 0 .7-.3.7-.7V6.8l1.4 1.4c.3.3.7.3 1 0l.9-1z"/><g id="XMLID_369_"><path id="XMLID_371_" class="st0" d="M6.1 19h10.8v3.2H6.1z"/><path id="XMLID_377_" class="st0" d="M24.2 19h10.6v3.2H24.2z"/></g><g id="XMLID_372_"><path id="XMLID_373_" class="st0" d="M24.2 9.7h10.6v3.2H24.2z"/><path id="XMLID_375_" class="st0" d="M6.1 9.7h10.8v3.2H6.1z"/></g></svg>