<svg id="Layer_1" xmlns="http://www.w3.org/2000/svg" viewBox="-492 492 14.3 17"><style>.st0{fill:#eda520}</style><path id="XMLID_3200_" class="st0" d="M-484.4 494.6c-3.1 0-5.6 2.5-5.6 5.6s2.5 5.6 5.6 5.6 5.6-2.5 5.6-5.6-2.5-5.6-5.6-5.6zm3 8.1c0 .1-.1.1-.1.2l-.1.1c-.3.3-.7.6-.7.6s-.2.2-.5.1-1.6-.6-2.9-2c-1.3-1.3-1.6-3.2-1.7-3.5 0-.2-.1-.4.4-.8.2-.2.4-.3.6-.4.1-.1.2-.1.3-.2.1-.1.3 0 .3.1l.6 1.3c.1.1 0 .3-.1.3l-.4.2-.4.2c-.1.1-.1.2-.1.3.2.3.5 1 1 1.6.4.5.8.8 1.1 1 .1.1.3.1.4-.1l.2-.2.2-.3c.1-.1.2-.1.3 0l1.5 1c.2.3.2.4.1.5z"/></svg>