<svg id="Layer_1" xmlns="http://www.w3.org/2000/svg" viewBox="-492 492 14.3 17"><style>.st0{fill:#f0a61f}</style><path class="st0" d="M-489 501.4c-.2-1.4.3-2.9 1.3-3.9.9-.9 2-1.3 3.2-1.3 1 0 1.9.3 2.7.9h-1c-.3 0-.5.2-.5.5s.2.5.5.5h2.3c.3 0 .5-.2.5-.5v-2.3c0-.3-.2-.5-.5-.5s-.5.2-.5.5v1.1c-1-.8-2.2-1.3-3.5-1.3-1.5 0-2.9.6-3.9 1.6-1.2 1.2-1.8 3-1.6 4.8 0 .2.3.4.5.4h.1c.3 0 .5-.3.4-.5zm9.9-2.3c-.1-.3-.4-.4-.6-.3-.3.1-.4.4-.3.6.5 1.6 0 3.4-1.1 4.5-1.8 1.8-4.6 1.8-6.4.1h1.2c.3 0 .5-.2.5-.5s-.2-.5-.5-.5h-2.3c-.3 0-.5.2-.5.5v2.3c0 .3.2.5.5.5s.5-.2.5-.5v-1c1.1 1 2.4 1.5 3.7 1.5 1.4 0 2.9-.5 3.9-1.6 1.4-1.5 2-3.7 1.4-5.6z"/></svg>