<svg id="Layer_1" xmlns="http://www.w3.org/2000/svg" viewBox="0 0 34.5 24.2"><style>.st0{fill:#fec46b}</style><path id="XMLID_3024_" class="st0" d="M22 1.4h-8.7c-4.1 0-7.5 3.4-7.5 7.5 0 2.1.9 4 2.3 5.4L7 21l5.8-4.6H22c4.1 0 7.5-3.4 7.5-7.5 0-4.2-3.4-7.5-7.5-7.5zm-9 9.2c-.8 0-1.4-.6-1.4-1.4 0-.8.6-1.4 1.4-1.4s1.4.6 1.4 1.4c0 .8-.6 1.4-1.4 1.4zm4.9 0c-.8 0-1.4-.6-1.4-1.4 0-.8.6-1.4 1.4-1.4s1.4.6 1.4 1.4c0 .8-.6 1.4-1.4 1.4zm4.7 0c-.8 0-1.4-.6-1.4-1.4 0-.8.6-1.4 1.4-1.4s1.4.7 1.4 1.5c0 .7-.6 1.3-1.4 1.3z"/></svg>