<svg id="Layer_1" xmlns="http://www.w3.org/2000/svg" viewBox="-492 492 14.3 17"><style>.st0{fill:#f6921e}</style><path id="XMLID_3048_" class="st0" d="M-478.6 500.6c0-.7-1-1.3-2.2-1.5.8-1 1.1-2.1.6-2.6-.5-.5-1.6-.3-2.6.6-.1-1.3-.7-2.2-1.5-2.2s-1.3 1-1.5 2.2c-1-.8-2.1-1.1-2.6-.6-.5.5-.3 1.6.6 2.6-1.3.1-2.2.7-2.2 1.5s1 1.3 2.2 1.5c-.8 1-1.1 2.1-.6 2.6.5.5 1.6.3 2.6-.6.1 1.3.7 2.2 1.5 2.2s1.3-1 1.5-2.2c1 .8 2.1 1.1 2.6.6.5-.5.3-1.6-.6-2.6 1.2-.2 2.2-.8 2.2-1.5zm-5.7 1.2c-.6 0-1.1-.5-1.1-1.1 0-.6.5-1.1 1.1-1.1.6 0 1.1.5 1.1 1.1 0 .6-.5 1.1-1.1 1.1z"/></svg>