<svg id="Layer_1" xmlns="http://www.w3.org/2000/svg" viewBox="0 0 20 18.7"><style>.st0{fill:none}.st1{fill:#f7941e}.st2{fill:#fcb23a}</style><g id="XMLID_2471_"><path id="XMLID_2473_" class="st0" d="M6.1 7.2c.4.7 1.2 2.2 2.3 3.6 1 1.2 1.9 1.9 2.4 2.3.3.2.6.1.8-.1l.4-.5c-.6-.6-1.3-1.4-2.1-2.3-1.2-1.5-2.1-2.9-2.7-4.1l-.9.5c-.3.1-.3.3-.2.6z"/><path id="XMLID_2472_" class="st1" d="M11.7 12.9c-.2.3-.6.3-.8.1-.5-.4-1.4-1.1-2.4-2.3-1.1-1.4-2-2.9-2.3-3.6-.2-.2-.2-.4.1-.5l.9-.5c-1.3-2.3-1.7-4-1.8-4.2-.5.3-.9.6-1.4 1-1.2 1-1 1.3-.9 1.9.2.5 1 4.8 3.9 7.8 2.9 3.1 6 4.4 6.6 4.5.6.1 1-.2 1-.2s1.1-.8 1.7-1.4c-.1 0-1.8-.6-4.3-3l-.3.4z"/></g><path id="XMLID_2470_" class="st2" d="M16.8 14.7c.2-.2.1-.6-.2-.7l-3.3-2.4c-.2-.2-.6-.1-.8.1l-.5.7c2.5 2.4 4.1 3 4.3 3 .1-.1.2-.2.2-.3.1-.1.2-.2.3-.4z"/><path id="XMLID_2469_" class="st2" d="M8 5.7c.3-.1.4-.5.3-.8l-1.4-3c-.1-.3-.5-.5-.8-.3-.2.1-.5.2-.7.3.1.2.5 1.9 1.8 4.2l.8-.4z"/></svg>