<?xml version="1.0" encoding="utf-8"?>
<!-- Generator: Adobe Illustrator 19.0.0, SVG Export Plug-In . SVG Version: 6.00 Build 0)  -->
<svg version="1.1" id="Layer_1" xmlns="http://www.w3.org/2000/svg" xmlns:xlink="http://www.w3.org/1999/xlink" x="0px" y="0px"
	 viewBox="-389.3 463.7 101.4 69" style="enable-background:new -389.3 463.7 101.4 69;" xml:space="preserve">
<style type="text/css">
	.st0{fill:#555655;}
	.st1{fill:#F7941E;}
</style>
<g id="XMLID_3433_">
	<path id="XMLID_3434_" class="st0" d="M-387.2,514.3l-0.3,2.4c0,1.3,0.1,3.5,0.4,6.5c0.3,3,0.6,4.8,0.9,5.3
		c0.6,0.9,1.5,1.3,2.6,1.3s2-0.3,2.5-1c0.2,0,0.5,0,0.8-0.1l0.2,0.2c0,1.1-0.8,1.7-2.5,2.1c-0.4,0.1-0.8,0.1-1.3,0.1
		s-1.1-0.2-1.8-0.7s-1.2-1-1.4-1.6c-0.3-0.6-0.6-2.5-0.8-5.6c-0.3-3.1-0.4-5.9-0.4-8.3s0.1-3.8,0.2-4.2c-0.1-0.4-0.1-0.7-0.1-1.1
		c0-1.3,0.5-2.4,1.4-3.1c0.9-0.7,2.1-1.1,3.5-1.1c0.4,0,0.8,0.1,1.2,0.4c0.4,0.2,0.7,0.5,0.7,0.9c0,0.2-0.2,0.4-0.5,0.4
		c-0.1,0-0.2-0.1-0.4-0.2c-0.2-0.1-0.3-0.2-0.4-0.2s-0.2,0-0.4,0.1c-0.3-0.1-0.5-0.1-0.8-0.1c-0.3,0-0.6,0.1-1,0.2
		c-0.4,0.1-0.7,0.3-1,0.4c-0.3,0.2-0.5,0.4-0.6,0.7c-0.2,0.3-0.3,0.6-0.4,0.9c-0.1,0.3-0.2,0.6-0.2,1.1c-0.1,0.6-0.1,1.4-0.1,2.3
		V514.3z"/>
	<path id="XMLID_3436_" class="st0" d="M-365.2,523.7v2.1c0,1.9-0.2,3.2-0.7,4.1c-0.2,0.4-0.5,0.7-0.9,0.9c-0.4,0.3-0.9,0.4-1.5,0.4
		s-1.2-0.2-1.7-0.5s-0.9-0.7-1.2-1.2s-0.5-1.1-0.7-1.7c-0.2-0.7-0.4-1.3-0.4-1.9c-0.2-1.5-0.5-2.5-0.7-3c0-1.8-0.1-4.4-0.3-7.9
		s-0.3-6.1-0.3-7.9l-0.4-0.6c0-0.2,0.1-0.3,0.2-0.4s0.2-0.2,0.4-0.2c0.5,0,0.8,0.8,0.8,2.4l0.3,11.2c0.1,0.1,0.1,0.4,0.2,0.8
		c0.1,1.5,0.2,2.5,0.3,2.9c0,0.3-0.1,0.5-0.1,0.8c0,0.3,0.1,0.8,0.3,1.5c0.2,0.7,0.5,1.4,0.8,2.1c0.3,0.7,0.8,1.3,1.3,1.8
		s1,0.7,1.4,0.7s0.7,0,0.9-0.1c0.2-0.1,0.3-0.2,0.5-0.3c0.1-0.1,0.2-0.3,0.3-0.5c0.1-0.2,0.1-0.4,0.1-0.5s0-0.3,0.1-0.7
		c0-0.3,0-0.5,0-0.6s0-0.2,0-0.3l0.1-1.1v-3.8l-0.2-2l-0.2-5.9V514l-0.1-0.2c0.1-0.6,0.1-1.3,0.1-1.9l-0.5-5.6
		c0-0.2,0.1-0.3,0.2-0.4c0.1-0.1,0.3-0.1,0.5-0.1l0.6,0.5l-0.1,0.3l0.1,0.3l-0.2,2l0.3,6l0.2,5.7h0.1c0,0.2,0,0.4,0,0.7
		L-365.2,523.7L-365.2,523.7L-365.2,523.7z"/>
	<path id="XMLID_3438_" class="st0" d="M-351.8,523l-0.1,1.4c0,0.1,0,0.2,0.1,0.4c-0.2,1.5-0.5,2.6-0.9,3.3
		c-0.4,0.6-0.8,1.1-1.2,1.5c-0.5,0.3-1.1,0.7-1.8,1c-0.2,0-0.4,0.1-0.6,0.2c-0.3,0.1-0.5,0.2-0.7,0.2c-0.9,0-1.3-0.2-1.3-0.5
		l0.2-8.4l-0.2-13.8c0-1.6,0.3-2.4,0.9-2.4c1.5,0,2.7,0.5,3.4,1.5c0.8,1,1.2,2.3,1.2,3.9s-0.7,3.4-2.1,5.3c0.3,0.5,0.7,1,1.1,1.5
		l0.9,1.2c0.6,0.8,0.9,1.4,1,2C-351.8,521.9-351.8,522.4-351.8,523z M-357.3,508.4l0.1,7.9h0.1c0.8,0,1.4-0.4,1.9-1.3
		c0.4-0.7,0.7-1.4,1-2.2c0.2-0.7,0.4-1.2,0.5-1.4v-1.3c0-0.8-0.3-1.5-0.8-2.2c-0.5-0.7-1.2-1-1.9-1
		C-357,506.9-357.3,507.4-357.3,508.4z M-357,529.5h0.2c0.7,0,1.5-0.3,2.4-1c0.9-0.7,1.4-1.3,1.5-1.8c0.1-0.5,0.2-1.2,0.2-2
		c0-4-0.9-6.3-2.8-7.1c-0.2,0-0.5,0.1-0.9,0.2c-0.4,0.1-0.6,0.2-0.8,0.2C-357,521.1-357,525-357,529.5z"/>
	<path id="XMLID_3442_" class="st0" d="M-341,530.5l-1-0.2c-0.2,0-0.5,0.1-0.8,0.4c-0.5,0-0.8-0.1-0.9-0.3h-0.1
		c-1,0-1.6-0.2-1.8-0.6c0-0.2,0.3-0.4,0.8-0.4h0.7c0.4,0,0.7-0.3,0.7-1c0-0.6,0-1.4-0.1-2.3c-0.1-0.9-0.1-1.8-0.1-2.7
		c0-0.9-0.1-2.7-0.2-5.3c-0.1-2.6-0.2-4.5-0.2-5.6v-3.9c0-1.1,0-1.7-0.1-1.9l-1.1,0.2c-0.2,0-0.4-0.2-0.4-0.5c0-0.3,0.5-0.6,1.5-0.8
		s1.6-0.3,2-0.3c0.6,0,0.9,0.2,0.9,0.5c0,0.4-0.1,0.5-0.4,0.5h-0.8c-0.4,0-0.6,0.2-0.7,0.5c-0.1,0.3-0.1,1.1-0.1,2.6
		s0.1,4.2,0.4,8.4c0.3,4.2,0.4,7.4,0.4,9.5v1.7l1.2-0.1c0.6,0,0.9,0.3,0.9,0.8L-341,530.5z"/>
	<path id="XMLID_3444_" class="st0" d="M-333.9,506.4l-0.1-0.6c0-0.2,0.2-0.3,0.7-0.3c0.9,0,1.6,0.3,2.1,0.8s0.8,1,1,1.6
		c0.2,0.6,0.3,1,0.4,1.3c0.2,0.7,0.3,1.2,0.3,1.5c0,1.1-0.3,2.4-0.9,4c-0.4,1-0.6,1.5-0.6,1.6c0,1.1,0.4,3.2,1.3,6.5
		c0.9,3.3,1.6,5.6,2.1,7c0,0.7-0.1,1.1-0.4,1.1c-0.2,0-0.4-0.1-0.6-0.3c-0.1-0.2-0.2-0.3-0.3-0.3c-0.1-0.9-0.3-2.1-0.8-3.6
		s-0.8-2.6-0.9-3.1c-0.1-0.5-0.3-1.6-0.6-3.1c-0.3-1.6-0.5-2.8-0.8-3.6l-0.3-0.2l-0.7,0.2v12.4l0.1,0.8c0,0.4-0.2,0.7-0.6,0.7
		c-0.2,0-0.3-0.1-0.4-0.2c-0.1-0.1-0.2-0.2-0.2-0.4l0.1-0.2l0.1-20V506.4z M-332.9,506.5l-0.2,7.2c0,0.9,0,1.7,0.1,2.1h0.1
		c0.2,0,0.4-0.2,0.9-0.7c0.4-0.5,0.7-0.8,0.9-1.1c0.2-0.3,0.3-0.7,0.4-1.3s0.1-1.1,0.1-1.6c0-0.4,0-0.8-0.1-1.3s-0.2-0.9-0.3-1.5
		c-0.1-0.5-0.3-1-0.6-1.3c-0.3-0.3-0.6-0.5-1-0.5v-0.1L-332.9,506.5z"/>
	<path id="XMLID_3447_" class="st0" d="M-312.8,523.7v2.1c0,1.9-0.2,3.2-0.7,4.1c-0.2,0.4-0.5,0.7-0.9,0.9c-0.4,0.3-0.9,0.4-1.5,0.4
		c-0.6,0-1.2-0.2-1.7-0.5s-0.9-0.7-1.2-1.2c-0.3-0.5-0.5-1.1-0.7-1.7c-0.2-0.7-0.4-1.3-0.4-1.9c-0.2-1.5-0.5-2.5-0.7-3
		c0-1.8-0.1-4.4-0.3-7.9c-0.2-3.5-0.3-6.1-0.3-7.9l-0.2-0.7c0-0.2,0.1-0.3,0.2-0.4c0.1-0.1,0.2-0.2,0.4-0.2c0.5,0,0.8,0.8,0.8,2.4
		l0.3,11.2c0.1,0.1,0.1,0.4,0.2,0.8c0.1,1.5,0.2,2.5,0.3,2.9c0,0.3-0.1,0.5-0.1,0.8s0.1,0.8,0.3,1.5s0.5,1.4,0.8,2.1
		c0.3,0.7,0.8,1.3,1.3,1.8s1,0.7,1.4,0.7c0.4,0,0.7,0,0.9-0.1c0.2-0.1,0.3-0.2,0.5-0.3c0.1-0.1,0.2-0.3,0.3-0.5
		c0.1-0.2,0.1-0.4,0.1-0.5c0-0.1,0-0.3,0.1-0.7c0-0.3,0-0.5,0-0.6c0-0.1,0-0.2,0-0.3l0.1-1.1v-3.8l-0.2-2l-0.2-5.9V514l-0.1-0.2
		c0.1-0.6,0.1-1.3,0.1-1.9l-0.3-5.6c0-0.2,0.1-0.3,0.2-0.4c0.1-0.1,0.3-0.1,0.5-0.1l0.6,0.5l-0.1,0.3l0.1,0.3l-0.2,2l0.3,6l0.2,5.7
		h0.1c0,0.2,0,0.4,0,0.7l0.1,2.3v0.1H-312.8z"/>
	<path id="XMLID_3449_" class="st0" d="M-299.4,523l-0.1,1.4c0,0.1,0,0.2,0.1,0.4c-0.2,1.5-0.5,2.6-0.9,3.3
		c-0.4,0.6-0.8,1.1-1.2,1.5c-0.5,0.3-1.1,0.7-1.8,1c-0.2,0-0.4,0.1-0.6,0.2c-0.3,0.1-0.5,0.2-0.7,0.2c-0.9,0-1.3-0.2-1.3-0.5
		l0.2-8.4l-0.2-13.8c0-1.6,0.3-2.4,0.9-2.4c1.5,0,2.7,0.5,3.4,1.5c0.8,1,1.2,2.3,1.2,3.9s-0.7,3.4-2.1,5.3c0.3,0.5,0.7,1,1.1,1.5
		l0.9,1.2c0.6,0.8,0.9,1.4,1,2C-299.4,521.9-299.4,522.4-299.4,523z M-304.9,508.4l0.1,7.9h0.1c0.8,0,1.4-0.4,1.9-1.3
		c0.4-0.7,0.7-1.4,1-2.2c0.2-0.7,0.4-1.2,0.5-1.4v-1.3c0-0.8-0.3-1.5-0.8-2.2c-0.5-0.7-1.2-1-1.9-1
		C-304.6,506.9-304.9,507.4-304.9,508.4z M-304.6,529.5h0.2c0.7,0,1.5-0.3,2.4-1c0.9-0.7,1.4-1.3,1.5-1.8c0.1-0.5,0.2-1.2,0.2-2
		c0-4-0.9-6.3-2.8-7.1c-0.2,0-0.5,0.1-0.9,0.2c-0.4,0.1-0.6,0.2-0.8,0.2C-304.6,521.1-304.6,525-304.6,529.5z"/>
	<path id="XMLID_3453_" class="st0" d="M-288.6,530.5l-1-0.2c-0.2,0-0.5,0.1-0.8,0.4c-0.5,0-0.8-0.1-0.9-0.3h-0.1
		c-1,0-1.6-0.2-1.8-0.6c0-0.2,0.3-0.4,0.8-0.4h0.7c0.4,0,0.7-0.3,0.7-1c0-0.6,0-1.4-0.1-2.3c-0.1-0.9-0.1-1.8-0.1-2.7
		c0-0.9-0.1-2.7-0.2-5.3c-0.1-2.6-0.2-4.5-0.2-5.6v-3.9c0-1.1,0-1.7-0.1-1.9l-1.1,0.2c-0.2,0-0.4-0.2-0.4-0.5c0-0.3,0.5-0.6,1.5-0.8
		s1.6-0.3,2-0.3c0.6,0,0.9,0.2,0.9,0.5c0,0.4-0.1,0.5-0.4,0.5h-0.8c-0.4,0-0.6,0.2-0.7,0.5c-0.1,0.3-0.1,1.1-0.1,2.6
		s0.1,4.2,0.4,8.4c0.3,4.2,0.4,7.4,0.4,9.5v1.7l1.2-0.1c0.6,0,0.9,0.3,0.9,0.8L-288.6,530.5z"/>
</g>
<path id="XMLID_4033_" class="st1" d="M-342.7,500.1L-342.7,500.1v-0.3c0-0.1,0-0.2-0.1-0.3c0.7-0.2,2.6-1,2.3-1.5
	c-0.3-0.4-1.8,0.6-2.5,1.1c0,0-0.1-0.1-0.2-0.1c0.3-0.8,0.9-2.4,0.3-2.5c-0.5-0.1-0.7,1.4-0.8,2.3c0,0,0,0-0.1,0h-0.2
	c-0.1,0-0.3,0-0.4,0.1c-0.4-0.6-1.2-1.8-1.5-1.5c-0.3,0.3,0.6,1.2,1.2,1.8c-0.1,0.1-0.2,0.3-0.3,0.5c-0.7-0.4-2.3-1.2-2.5-0.7
	c-0.1,0.5,1.6,1,2.4,1.2c0,0.2,0.1,0.3,0.2,0.5c-0.6,0.3-2,1.1-1.7,1.5c0.3,0.3,1.5-0.7,2-1.2c0.2,0.1,0.3,0.2,0.5,0.2h0.2
	c0.2,0,0.3,0,0.4-0.1c0.3,0.5,1.4,2.6,1.8,2.2s-1-1.9-1.5-2.4c0.1-0.1,0.2-0.3,0.2-0.4v0.1c0,0,2.5,0.5,2.5-0.1
	C-340.3,499.8-342.2,500-342.7,500.1z"/>
<path id="XMLID_4093_" class="st0" d="M-328.2,479.2h-0.4l0.1-7.1l-4-0.2c0.4-1.2,2.3-7.6,0.5-7.4c-1.6,0.2-2.4,5.3-2.7,7.3
	l-4.7-0.3c-0.1-1.1-1-7.7-2.7-7.8c-1.9-0.2,0.6,7.6,0.6,7.6l0.7,0.1l-5.8-0.3l-0.7,19.8l18.4-0.2l0.1-6.6h0.3c0.5,0,0.9-0.3,0.9-0.8
	l0.1-3.1C-327.3,479.6-327.7,479.2-328.2,479.2z M-344.3,487.9l-2.1,2.1l1.1-17.5l15,1.4L-344.3,487.9z"/>
</svg>
