<?xml version="1.0" encoding="utf-8"?>
<!-- Generator: Adobe Illustrator 19.0.0, SVG Export Plug-In . SVG Version: 6.00 Build 0)  -->
<svg version="1.1" id="Layer_1" xmlns="http://www.w3.org/2000/svg" xmlns:xlink="http://www.w3.org/1999/xlink" x="0px" y="0px"
	 viewBox="0 0 23 20.3" style="enable-background:new 0 0 23 20.3;" xml:space="preserve">
<style type="text/css">
	.st0{fill:#ffffff;}
</style>
<g id="XMLID_4146_">
	<path id="XMLID_4157_" class="st0" d="M7.7,8.9v2.2h4c-0.5,1.7-2.1,2.9-4,2.9c-2.3,0-4.2-1.9-4.2-4.2c0-2.3,1.9-4.2,4.2-4.2
		c1,0,2,0.4,2.7,1L12.1,5c-1.2-1.1-2.7-1.8-4.5-1.8C4,3.2,1,6.2,1,9.9s3,6.6,6.6,6.6c3.7,0,6.6-3,6.6-6.6c0-0.3,0-0.6-0.1-0.9H7.7z"
		/>
	<polygon id="XMLID_4147_" class="st0" points="20.1,8.9 20.1,7.1 18.2,7.1 18.2,8.9 16.3,8.9 16.3,10.8 18.2,10.8 18.2,12.7 
		20.1,12.7 20.1,10.8 22,10.8 22,8.9 	"/>
</g>
</svg>
