<?xml version="1.0" encoding="utf-8"?>
<!-- Generator: Adobe Illustrator 19.0.0, SVG Export Plug-In . SVG Version: 6.00 Build 0)  -->
<svg version="1.1" id="Layer_1" xmlns="http://www.w3.org/2000/svg" xmlns:xlink="http://www.w3.org/1999/xlink" x="0px" y="0px"
	 viewBox="0 0 23 20.3" style="enable-background:new 0 0 23 20.3;" xml:space="preserve">
<style type="text/css">
	.st0{fill:#57788f;}
</style>
<g id="XMLID_4195_">
	<path id="XMLID_4200_" class="st0" d="M20.2,6.4c0-2.7-2.2-4.9-4.9-4.9c-0.2,0-1.6-0.1-3.3-0.1S8.8,1.5,8.6,1.5
		c-2.7,0-4.9,2.2-4.9,4.9c0,0.2-0.1,1.2-0.1,3.3c0,2.2,0.1,3.5,0.1,3.7c0,2.7,2.2,4.9,4.9,4.9c0.1,0,1.2,0,3.3,0s3.3,0,3.4,0
		c2.7,0,4.9-2.2,4.9-4.9c0-0.2,0.1-1.7,0.1-3.6C20.3,8,20.2,6.6,20.2,6.4z M18.8,13.3L18.8,13.3c0,2-1.6,3.5-3.5,3.5l0,0
		c0,0-1.3,0-3.4,0s-3.3,0-3.3,0l0,0c-2,0-3.5-1.6-3.5-3.5v0c0,0-0.1-1.3-0.1-3.6s0.1-3.2,0.1-3.2v0v0c0-2,1.6-3.5,3.5-3.5h0
		c0,0,1.6-0.1,3.4-0.1s3.3,0.1,3.3,0.1h0c2,0,3.5,1.6,3.5,3.5v0c0,0,0.1,1.5,0.1,3.4C19,11.8,18.8,13.3,18.8,13.3z"/>
	<path id="XMLID_4197_" class="st0" d="M12.1,5.5c-2.4,0-4.3,2-4.3,4.3s2,4.3,4.3,4.3s4.3-2,4.3-4.3S14.5,5.5,12.1,5.5z M12.1,12.8
		c-1.6,0-2.9-1.3-2.9-2.9s1.3-2.9,2.9-2.9s2.9,1.3,2.9,2.9C15.1,11.5,13.7,12.8,12.1,12.8z"/>
	<circle id="XMLID_4196_" class="st0" cx="16.5" cy="5.4" r="1"/>
</g>
</svg>
