<svg id="Layer_1" xmlns="http://www.w3.org/2000/svg" viewBox="0 0 23 20.3"><style>.st0{fill:#57788f}</style><g id="XMLID_4195_"><path id="XMLID_4200_" class="st0" d="M20.2 6.4c0-2.7-2.2-4.9-4.9-4.9-.2 0-1.6-.1-3.3-.1s-3.2.1-3.4.1c-2.7 0-4.9 2.2-4.9 4.9 0 .2-.1 1.2-.1 3.3 0 2.2.1 3.5.1 3.7 0 2.7 2.2 4.9 4.9 4.9h6.7c2.7 0 4.9-2.2 4.9-4.9 0-.2.1-1.7.1-3.6 0-1.8-.1-3.2-.1-3.4zm-1.4 6.9c0 2-1.6 3.5-3.5 3.5H8.6c-2 0-3.5-1.6-3.5-3.5 0 0-.1-1.3-.1-3.6s.1-3.2.1-3.2c0-2 1.6-3.5 3.5-3.5 0 0 1.6-.1 3.4-.1s3.3.1 3.3.1c2 0 3.5 1.6 3.5 3.5 0 0 .1 1.5.1 3.4.1 1.9-.1 3.4-.1 3.4z"/><path id="XMLID_4197_" class="st0" d="M12.1 5.5c-2.4 0-4.3 2-4.3 4.3s2 4.3 4.3 4.3 4.3-2 4.3-4.3-1.9-4.3-4.3-4.3zm0 7.3c-1.6 0-2.9-1.3-2.9-2.9S10.5 7 12.1 7 15 8.3 15 9.9c.1 1.6-1.3 2.9-2.9 2.9z"/><circle id="XMLID_4196_" class="st0" cx="16.5" cy="5.4" r="1"/></g></svg>