<svg id="Layer_1" xmlns="http://www.w3.org/2000/svg" viewBox="0 0 23 17"><style>.st0{fill:#bcbec0}</style><path id="XMLID_4259_" class="st0" d="M17.4 8.8c-.5-.5.4-1.3.4-1.3s1.1-1.4 1.3-1.8c.2-.4.6-.8.9-1.6.2-.7-.6-.6-.6-.6h-3c-.2 0-.3.3-.5.6-.1.3-.4 1-1.1 2.2-.7 1.2-1.2 1.5-1.4 1.5s-.4-.4-.4-.9c0-.6.1-2 0-2.7s-.2-.9-.8-1-1.5-.1-2.4 0c-.5 0-.8.2-1 .4-.1.1 0 .2 0 .3.1 0 .2 0 .3.1.6 0 .7.6.7 1.7s-.1 2.1-.5 2.1-.6-.5-1.3-1.5c-.5-.8-1-1.8-1.3-2.4-.1-.3-.3-.4-.6-.4H3.7c-.3 0-.6.4-.4.6.1.3 1.1 2.2 2 3.8.9 1.6 1.8 2.7 3.2 3.7 1.4 1.1 3.3.9 4 .9s.6-.7.6-1.1c0-.3.2-1.1.7-1.1.5 0 1.8 1.6 1.8 1.6.6.7 1.5.6 1.5.6H19c.3 0 .8 0 1-.4.2-.4-.5-1.1-.7-1.4-.3-.3-1.5-1.4-1.9-1.9z"/></svg>