<svg id="Layer_1" xmlns="http://www.w3.org/2000/svg" viewBox="0 0 40.7 40.7"><style>.st0{fill:#fcb23a}.st1{fill:#f7941e}.st2{fill:#59718d}.st3{fill:#3d556d}</style><g id="XMLID_1369_"><path id="XMLID_1379_" class="st0" d="M24.4 7h-1.1l.2.4h.1c-.2.2-.3.5-.3.7 0 .6.5 1.1 1.1 1.1s1.1-.5 1.1-1.1S25.1 7 24.4 7z"/><path id="XMLID_1378_" class="st0" d="M16.8 7h-1.1l.2.4h.1c-.2.2-.3.5-.3.7 0 .6.5 1.1 1.1 1.1s1.1-.5 1.1-1.1S17.4 7 16.8 7z"/><path id="XMLID_1377_" class="st0" d="M24.9 8.2h2c1.3 0 1.3 1.5 1.3 1.5v21.7h-2L24.9 8.2z"/><path id="XMLID_1376_" class="st1" d="M27.2 31.3h-12c-1.5 0-2.8-1.2-2.8-2.8V9.8c0-.9.7-1.7 1.7-1.7h11.4c.9 0 1.7.7 1.7 1.7v21.5z"/><path id="XMLID_1375_" class="st2" d="M25.1 26.8H14.5c-.4 0-.7-.3-.7-.7V10.6c0-.4.3-.7.7-.7h10.6c.4 0 .7.3.7.7v15.5c0 .4-.3.7-.7.7z"/><path id="XMLID_1374_" class="st3" d="M20.5 9.3H19c-.1 0-.2-.1-.2-.2s.1-.2.2-.2h1.5c.1 0 .2.1.2.2s-.1.2-.2.2z"/><path id="XMLID_1373_" class="st3" d="M20.8 29.6h-1.9c-.2 0-.3-.1-.3-.3v-.8c0-.2.1-.3.3-.3h1.9c.2 0 .3.1.3.3v.8c-.1.2-.2.3-.3.3z"/><circle id="XMLID_1372_" class="st1" cx="15.7" cy="8.2" r="1.1"/><circle id="XMLID_1371_" class="st1" cx="23.3" cy="8.2" r="1.1"/><path id="XMLID_1370_" class="st3" d="M14.7 26.1V10.6c0-.4.3-.7.7-.7h-.9c-.4 0-.7.3-.7.7v15.5c0 .4.3.7.7.7h.9c-.4 0-.7-.3-.7-.7z"/></g></svg>