<svg id="Layer_1" xmlns="http://www.w3.org/2000/svg" viewBox="0 0 40.7 40.7"><style>.st0{fill:#f7941e}.st1{fill:#59718d}.st2{fill:#fcb23a}.st3{fill:#3d556d}</style><path id="XMLID_1429_" class="st0" d="M14.3 6.4v-.8l1.6-.7v1.5z"/><path id="XMLID_1336_" class="st0" d="M10.6 13.3h9.2l-1.3 22.1c0 .5-.5.9-1 .9H13c-.5 0-.9-.4-1-.9l-1.4-22.1z"/><path id="XMLID_1335_" class="st1" d="M10.6 13.3l-.1-1.3s-.1-.5.4-.5C12.6 11.2 14 9.8 14 8V6.8c0-.3.2-.5.5-.5h1.4c.3 0 .5.2.5.5V8c0 1.8 1.4 3.3 3.2 3.5.5.1.4.6.4.6l-.1 1.2h-9.3z"/><path id="XMLID_1334_" class="st1" d="M28.8 33.4H27c-.6 0-1-.5-1-1V10.2h3.8v22.2c0 .5-.5 1-1 1z"/><path id="XMLID_1333_" class="st0" d="M28.3 6.5h-.9c-.2 0-.4.1-.5.3l-1 3.3h3.8l-1-3.3c0-.2-.2-.3-.4-.3z"/><path id="XMLID_1332_" class="st1" d="M28.3 6.5h-.9l.2-1.4s0-.2.2-.2.2.2.2.2l.3 1.4z"/><path id="XMLID_1331_" class="st0" d="M28.1 36.3h-.4c-.3 0-.6-.3-.6-.6v-2.3h1.6v2.3c0 .4-.3.6-.6.6z"/><path id="XMLID_1330_" class="st2" d="M19.1 13.3l-1.3 22.1c0 .5-.5.9-1 .9h.7c.5 0 .9-.4 1-.9l1.3-22.1h-.7z"/><path id="XMLID_1329_" class="st2" d="M11.3 13.3l1.3 22.1c0 .5.5.9 1 .9h-.7c-.5 0-.9-.4-1-.9l-1.3-22.1h.7z"/><path id="XMLID_1328_" class="st3" d="M11.3 13.3l-.1-.9s0-.4.3-.5c.5-.1 1.4-.5 2.1-1.4.9-1.2.9-4.1.9-4.1h.6v6.9h-3.8z"/><path id="XMLID_1327_" class="st3" d="M19.2 13.3l.1-.9s.1-.4-.4-.5c-.5-.1-1.5-.5-2.2-1.4-1-1.2-.9-4.1-.9-4.1h-.7v6.9h4.1z"/><path id="XMLID_1326_" class="st3" d="M29.2 10.2v22.2c0 .6-.5 1-1 1h.5c.6 0 1-.5 1-1V10.2h-.5z"/><path id="XMLID_1325_" class="st2" d="M28.8 6.8c-.1-.2-.2-.3-.5-.3h-.5c.2 0 .4.1.5.3l1 3.3h.5l-1-3.3z"/><path id="XMLID_1324_" class="st0" d="M30.1 21.5v8.8h-4.3s-.2 0-.2.3.2.3.2.3h4.4c.2 0 .4-.2.4-.4v-9.6c.1 0-.5 0-.5.6z"/><path id="XMLID_1323_" class="st2" d="M28.4 33.4v2.3c0 .3-.3.6-.6.6h.3c.3 0 .6-.3.6-.6v-2.3h-.3z"/></svg>