<svg id="Layer_1" xmlns="http://www.w3.org/2000/svg" viewBox="0 0 40.7 40.7"><style>.st0{fill:#3d556d}.st1{fill:#59718d}.st2{fill:#fcb23a}</style><path id="XMLID_1428_" class="st0" d="M26.7 18.7h4.2c1.7 0 3.6 5.7 3.6 5.7h-.3s-.8.1-1.1-.6c-.5-1.2-1.4-3.8-2.4-3.8h-3.6l-.4-1.3z"/><path id="XMLID_1427_" class="st0" d="M18.2 18.7h-7.5v4.5c.3 1.2 1.3 2.1 2.6 2.1h3.1c1 0 1.8-.8 1.8-1.8v-4.8z"/><path id="XMLID_1426_" class="st0" d="M20.3 18.7h8.5l-.9 4.5c-.3 1.2-1.3 2.1-2.6 2.1h-3.2c-1 0-1.8-.8-1.8-1.8v-4.8z"/><path id="XMLID_1347_" class="st1" d="M17.4 18.7h-6.8c-.9 0-1.5.8-1.3 1.6l.6 2.9c.3 1.2 1.3 2.1 2.6 2.1h3.1c1 0 1.8-.8 1.8-1.8v-4.8z"/><path id="XMLID_1346_" class="st1" d="M19.6 18.7h8.5l-.9 4.5c-.3 1.2-1.1 2.1-2.3 2.1h-3.4c-1 0-1.8-.8-1.8-1.8v-4.8z"/><path id="XMLID_1345_" class="st1" d="M20.1 20.9l-1.6-.8-1.5.8v-2.2h3.1z"/><path id="XMLID_1344_" class="st2" d="M11.1 19.6h5.5v3.7c0 .5-.4 1-.9 1h-3.2c-.8 0-1.6-.6-1.8-1.5l-.4-2.1c-.2-.6.2-1.1.8-1.1z"/><path id="XMLID_1343_" class="st1" d="M26.1 18.7h4.2c1.7 0 3.6 5.7 3.6 5.7h-.3s-.8.1-1.1-.6c-.5-1.2-1.4-3.8-2.4-3.8h-3.6l-.4-1.3z"/><path id="XMLID_1342_" class="st2" d="M26.1 19.6h-5.7v3.7c0 .5.4 1 .9 1h3.5c.8 0 1.3-.6 1.5-1.5l.5-2.3c.1-.5-.2-.9-.7-.9z"/></svg>