<svg id="Layer_1" xmlns="http://www.w3.org/2000/svg" viewBox="0 0 40.7 40.7"><style>.st0{fill:#3d556d}.st1{fill:#fcb23a}.st2{fill:#f7941e}.st3{fill:#59718d}.st4{fill:#f1f2f2}.st5{fill:#fff}</style><ellipse id="XMLID_1472_" class="st0" cx="20.7" cy="14.5" rx="10.8" ry="9.7"/><path id="XMLID_1471_" class="st1" d="M31.4 29.5h-1.2c-1.8-1.3-5.4-2.3-9.6-2.3s-7.8.9-9.6 2.3H9.7v2.1c.1 2.3 4.9 4.1 10.8 4.1s10.7-1.8 10.8-4.1v-2.1z"/><ellipse id="XMLID_1234_" class="st2" cx="20.6" cy="29.7" rx="10.8" ry="4.2"/><ellipse id="XMLID_1233_" class="st3" cx="20.7" cy="15.8" rx="10.8" ry="9.7"/><ellipse id="XMLID_1232_" class="st0" cx="20.6" cy="29.7" rx="7.6" ry="2.9"/><path id="XMLID_1115_" class="st0" d="M22.5 26.1h-3.7c-.3 0-.6-.3-.6-.6s.3-.6.6-.6h3.7c.3 0 .6.3.6.6s-.3.6-.6.6z"/><g id="XMLID_1112_"><path id="XMLID_1113_" class="st4" d="M24 8.6L13.7 20.5c1.6 1.9 4.1 3.1 7 3.1 4.8 0 8.7-3.5 8.7-7.8 0-3.3-2.3-6.1-5.4-7.2z"/></g><path id="XMLID_1111_" class="st5" d="M20.7 8c-4.8 0-8.7 3.5-8.7 7.8 0 1.8.7 3.4 1.8 4.7L24 8.6c-1-.4-2.2-.6-3.3-.6z"/></svg>