<svg id="Layer_1" xmlns="http://www.w3.org/2000/svg" viewBox="0 0 40.7 40.7"><style>.st0{fill:#59718d}.st1{fill:#fcb23a}.st2{fill:#fff}</style><path id="XMLID_2268_" class="st0" d="M31.5 26.5H13.6V15.3l18.5-.3.9 9.8c.1.9-.6 1.7-1.5 1.7z"/><path id="XMLID_2267_" class="st1" d="M35.3 19.7c.1 1.2-.5 2.3-1.5 2.9-2.5 1.5-7.9 3.9-16.6 3.9H9.4c-1.5 0-2.8-1.6-2.8-3.6v-5.5c0-1.3 1-2.3 2.3-2.3h8.5c7.3 0 13-2.5 15.6-3.9.7-.4 1.6.1 1.7.9l.6 7.6z"/><circle id="XMLID_2266_" class="st2" cx="15.7" cy="20.4" r="1.4"/><ellipse id="XMLID_2265_" class="st2" cx="21.5" cy="19.9" rx="1.3" ry="1.4"/><ellipse id="XMLID_2264_" transform="rotate(-8.673 27.417 18.805)" class="st2" cx="27.4" cy="18.8" rx="1.3" ry="1.4"/></svg>