<svg id="Layer_1" xmlns="http://www.w3.org/2000/svg" viewBox="0 0 40.7 40.7"><style>.st0{fill:#fcb23a}.st1{fill:#f1f2f2}.st2{fill:#f7941e}.st3{fill:#f4f3f6}.st4{fill:#f0f8f9}.st5{fill:#393b3e}</style><path id="XMLID_1467_" class="st0" d="M29.3 31H14c-2.3 0-4.2-1.9-4.2-4.2V7.9h19.5V31z"/><path id="XMLID_1466_" class="st1" d="M28.4 31H13.1c-2.3 0-4.2-1.9-4.2-4.2V7.9h19.5V31z"/><path id="XMLID_1465_" class="st2" d="M25.9 7.9h2.5V31h-2.5z"/><path id="XMLID_1272_" transform="rotate(45.001 27.69 16.138)" class="st0" d="M25.9 6.6h3.7v19h-3.7z"/><path id="XMLID_1271_" transform="rotate(45.001 28.064 16.513)" class="st2" d="M26.8 7h2.6v19h-2.6z"/><path id="XMLID_1269_" class="st3" d="M19.7 21.6L18 25.9l4.3-1.8z"/><path id="XMLID_1268_" class="st4" d="M20.4 22.3L18 25.9l4.3-1.8z"/><path id="XMLID_1267_" class="st5" d="M18.6 24.3l.9.9-1.5.7z"/></svg>