<svg id="Layer_1" xmlns="http://www.w3.org/2000/svg" viewBox="0 0 40.7 40.7"><style>.st0{fill:#fcb23a}.st1{fill:#f7941e}.st2{fill:#fff}.st3{fill:#59718d}</style><path id="XMLID_1423_" class="st0" d="M35.8 11.5H6.2v2.6c0 1.9 1.5 3.4 3.4 3.4h22.9c1.9 0 3.4-1.5 3.4-3.4v-2.6z"/><path id="XMLID_1422_" class="st0" d="M5.1 10.3h30.7v1.3H5.1z"/><path id="XMLID_1421_" class="st1" d="M34.7 11.5H5.1v2.6c0 1.9 1.5 3.4 3.4 3.4h22.9c1.9 0 3.4-1.5 3.4-3.4v-2.6z"/><path id="XMLID_1420_" class="st0" d="M35.8 29.5H6.2v-8.6c0-1.9 1.5-3.4 3.4-3.4h22.9c1.9 0 3.4 1.5 3.4 3.4v8.6z"/><path id="XMLID_1419_" class="st0" d="M5.1 29.5h30.7v1.3H5.1z"/><path id="XMLID_1362_" class="st1" d="M34.7 29.5H5.1v-8.6c0-1.9 1.5-3.4 3.4-3.4h22.9c1.9 0 3.4 1.5 3.4 3.4v8.6z"/><path id="XMLID_1357_" class="st2" d="M14 27.8c-2.2 0-4-1.8-4-4s1.8-4 4-4 4 1.8 4 4-1.8 4-4 4zm0-7c-1.6 0-3 1.3-3 3s1.3 3 3 3 3-1.3 3-3-1.3-3-3-3z"/><path id="XMLID_1661_" class="st2" d="M25 27.8c-2.2 0-4-1.8-4-4s1.8-4 4-4 4 1.8 4 4-1.8 4-4 4zm0-7c-1.6 0-3 1.3-3 3s1.3 3 3 3 3-1.3 3-3-1.3-3-3-3z"/><path id="XMLID_1662_" class="st2" d="M21.6 22.5c-.2 0-.3-.1-.4-.2 0 0-.5-.7-1.6-.7s-1.6.7-1.6.7c-.2.2-.5.3-.7.1-.2-.1-.3-.5-.2-.7 0 0 .8-1.2 2.4-1.2s2.4 1.2 2.4 1.2c.1.2.1.5-.2.7 0 .1 0 .1-.1.1z"/><path id="XMLID_1355_" class="st3" d="M13.4 18.1h-3.2c-.3 0-.6-.3-.6-.6s.3-.6.6-.6h3.2c.3 0 .6.3.6.6s-.3.6-.6.6z"/><path id="XMLID_1354_" class="st3" d="M29.2 18.1H26c-.3 0-.6-.3-.6-.6s.3-.6.6-.6h3.2c.3 0 .6.3.6.6s-.3.6-.6.6z"/></svg>