<svg id="Layer_1" xmlns="http://www.w3.org/2000/svg" viewBox="0 0 40.7 40.7"><style>.st0{fill:#3d556d}.st1{fill:#59718d}.st2{fill:#f7941e}.st3{fill:#fff}</style><g id="XMLID_1431_"><path id="XMLID_1432_" class="st0" d="M20.6 8.1v19.1h.1c.2 0 .4.2.4.4s-.2.4-.4.4h-.1v.9h.1c.2 0 .4.2.4.4s-.2.4-.4.4h-.1v.9h.1c.2 0 .4.2.4.4s-.2.4-.4.4h-.1v2.8h.9c.7 0 1.3-.6 1.3-1.3V8.1h-2.2z"/></g><path id="XMLID_1430_" class="st1" d="M20.3 31c0-.2.2-.4.4-.4v-.9c-.2 0-.4-.2-.4-.4s.2-.4.4-.4V28c-.2 0-.4-.2-.4-.4s.2-.4.4-.4V8.1h-2.2v24.7c0 .7.6 1.3 1.3 1.3h.9v-2.8c-.3 0-.4-.1-.4-.3z"/><circle id="XMLID_1322_" class="st2" cx="20.6" cy="20.3" r="5.1"/><circle id="XMLID_1321_" class="st3" cx="20.6" cy="20.3" r="4.3"/><path id="XMLID_1320_" class="st0" d="M24.2 20.3h-3.3l-1.7-2.9c-.1-.1-.2-.1-.3-.1-.1.1-.1.2-.1.3l1.7 3-1.8 3.1v.1h.2l1.8-3.1h3.4c.1 0 .2-.1.2-.2.1-.1 0-.2-.1-.2z"/></svg>