<svg id="Layer_1" xmlns="http://www.w3.org/2000/svg" viewBox="0 0 40.7 40.7"><style>.st0{fill:#fcb23a}.st1{fill:#3d556d}.st2{fill:#59718d}.st3{fill:#f7941e}</style><path id="XMLID_1449_" class="st0" d="M10 18.4h23.2v11c0 1.4-1.1 2.5-2.5 2.5H12.4c-1.4 0-2.5-1.1-2.5-2.5v-11z"/><path id="XMLID_1448_" class="st1" d="M29.2 21.6h4v2.3h-4z"/><path id="XMLID_1447_" class="st2" d="M12.1 14.3h2.7v5.4h-2.7z"/><path id="XMLID_1446_" class="st1" d="M14 14.3h.8v5.4H14z"/><path id="XMLID_1445_" class="st0" d="M12.1 14.3l1.2-3.2c.1-.1.3-.1.3 0l1.2 3.2h-2.7z"/><path id="XMLID_1444_" class="st2" d="M19.8 13.2h2.7v5.4h-2.7z"/><path id="XMLID_1443_" class="st1" d="M21.7 13.2h.8v5.4h-.8z"/><path id="XMLID_1442_" class="st0" d="M19.8 13.2L21 10c.1-.1.3-.1.3 0l1.2 3.2h-2.7z"/><path id="XMLID_1441_" class="st2" d="M23.6 15.1h2.7v5.4h-2.7z"/><path id="XMLID_1440_" class="st1" d="M25.5 15.1h.8v5.4h-.8z"/><path id="XMLID_1439_" class="st0" d="M23.6 15.1l1.2-3.2c.1-.1.3-.1.3 0l1.2 3.2h-2.7z"/><path id="XMLID_1438_" class="st2" d="M28.4 14.3h2.7v5.4h-2.7z"/><path id="XMLID_1437_" class="st1" d="M30.3 14.3h.8v5.4h-.8z"/><path id="XMLID_1436_" class="st0" d="M28.4 14.3l1.2-3.2c.1-.1.3-.1.3 0l1.2 3.2h-2.7z"/><path id="XMLID_1435_" class="st2" d="M16.2 10.2h2.7v9.2h-2.7z"/><path id="XMLID_1434_" class="st1" d="M18 10.2h.8v9.2H18z"/><path id="XMLID_1433_" class="st0" d="M16.2 10.2L17.4 7c.1-.1.3-.1.3 0l1.2 3.2h-2.7z"/><path id="XMLID_1296_" class="st3" d="M9.2 18.4h23.2v11c0 1.4-1.1 2.5-2.5 2.5H11.7c-1.4 0-2.5-1.1-2.5-2.5v-11z"/><path id="XMLID_1295_" class="st2" d="M9.2 21.6h23.2v2.3H9.2z"/><circle id="XMLID_1294_" class="st3" cx="10.9" cy="22.8" r=".5"/><circle id="XMLID_1293_" class="st3" cx="30.8" cy="22.8" r=".5"/><path id="XMLID_1292_" class="st1" d="M13.9 11.9l-.3-.7c-.1-.1-.3-.1-.3 0l-.3.7h.9z"/><path id="XMLID_1291_" class="st1" d="M18 7.8l-.3-.8c-.1-.1-.3-.1-.3 0l-.3.7h.9z"/><path id="XMLID_1290_" class="st1" d="M21.6 10.8l-.3-.7c-.1-.1-.3-.1-.3 0l-.3.7h.9z"/><path id="XMLID_1289_" class="st1" d="M25.4 12.7l-.3-.7c-.1-.1-.3-.1-.3 0l-.3.7h.9z"/><path id="XMLID_1288_" class="st1" d="M30.2 11.9l-.3-.7c-.1-.1-.3-.1-.3 0l-.3.7h.9z"/></svg>