<svg id="Layer_1" xmlns="http://www.w3.org/2000/svg" viewBox="0 0 34 40.7"><style>.st0{fill:#fcb23a}.st1{fill:#59718d}.st2{fill:#f7941e}</style><path id="XMLID_1457_" class="st0" d="M9.9 34.6c1.9.8 4.3-.6 5.4-3.2.8-2 .6-4.1-.5-5.3l4.7-3.5s1.9-9.5 1.7-13.2c-.2-3.8-1.4-5.8-1.4-5.8l-3.9 19-2.5 2.6c-1.9-.5-4.1.9-5.1 3.3-1.1 2.6-.4 5.3 1.6 6.1zm0-5.4c.6-1.6 1.9-2.5 3.1-2 1.2.5 1.4 2 .8 3.6-.7 1.6-1.9 2.4-3.1 1.9-1.3-.5-1.4-1.9-.8-3.5z"/><path id="XMLID_1249_" class="st1" d="M24.9 19c-2.4 0-5.4-1.5-8.6-4.4-1.9-1.8-3.6-2.5-5.1-2-2.4.7-3.8 4.7-4.1 6.1l-1.9-.5c.1-.3 1.5-6.3 5.5-7.6 2.1-.7 4.5.2 7 2.5 4.3 4 7.4 4.3 8.8 3.4 1.1-.7 1.3-2.5.5-4.5l1.9-.7c1.1 2.9.7 5.5-1.3 6.9-.8.5-1.7.8-2.7.8z"/><path id="XMLID_1246_" class="st2" d="M27 28.6c-1-2.4-3.2-3.8-5.1-3.3l-2.5-2.6-3.9-19s-1.2 2-1.4 5.8 1.7 13.2 1.7 13.2l4.7 3.5c-1.1 1.2-1.3 3.3-.5 5.3 1.1 2.6 3.5 4 5.4 3.2 1.9-.9 2.6-3.6 1.6-6.1zm-2.3 4.1c-1.2.5-2.4-.3-3.1-1.9-.7-1.6-.4-3.1.8-3.6 1.2-.5 2.5.4 3.1 2 .4 1.6.3 3-.8 3.5z"/><circle id="XMLID_1245_" class="st0" cx="17.5" cy="22.2" r=".4"/></svg>