<svg id="Layer_1" xmlns="http://www.w3.org/2000/svg" viewBox="0 0 40.7 40.7"><style>.st0{fill:#f1f2f2}.st1{fill:#d1d3d4}.st2{fill:#f7941e}</style><path id="XMLID_265_" class="st0" d="M15.4 34.1h16.3V5.6H10.9v24c0 2.5 2 4.5 4.5 4.5z"/><path id="XMLID_321_" transform="rotate(-45.001 11.112 5.812)" class="st1" d="M10.5 4.7h1.2v2.2h-1.2z"/><path id="XMLID_323_" transform="rotate(-134.999 31.57 5.812)" class="st1" d="M30.9 4.7h1.2v2.2h-1.2z"/><path id="XMLID_333_" class="st2" d="M20.7 22.4l1.6-.8c2.2-1.1 4.7-1.4 7-.8v-.3c0-4.5-3.6-8.1-8.1-8.1s-8.1 3.6-8.1 8.1c0 1 .2 1.9.5 2.8 2.5.5 4.9.2 7.1-.9z"/></svg>