<svg id="Layer_1" xmlns="http://www.w3.org/2000/svg" viewBox="0 0 40.7 40.7"><style>.st0{fill:#fcb23a}.st1{fill:#3d556d}.st2{fill:#f7941e}.st3{fill:#59718d}</style><path id="XMLID_1425_" class="st0" d="M30.3 15.9h-19c-.7 0-1.2-.5-1.2-1.2s.5-1.2 1.2-1.2h19c.7 0 1.2.5 1.2 1.2s-.5 1.2-1.2 1.2z"/><path id="XMLID_1424_" class="st1" d="M11 15.8V20l-3.9 7c-.2.4-.4.9-.4 1.4 0 1.6 1.3 2.9 2.9 2.9l22.6.4s2.6-1.7 2.6-3.3v-.1c0-.5-.1-1-.4-1.4l-3.9-7.2v-3.9H11z"/><path id="XMLID_1353_" class="st2" d="M29 16.7H10c-.7 0-1.2-.5-1.2-1.2s.5-1.2 1.2-1.2h19c.7 0 1.2.5 1.2 1.2s-.5 1.2-1.2 1.2z"/><circle id="XMLID_1352_" class="st2" cx="18.5" cy="11.6" r="1.2"/><circle id="XMLID_1351_" class="st2" cx="22.1" cy="11.6" r="1.2"/><path id="XMLID_1350_" class="st2" d="M19.8 14.7l-.7-.3s.1-.3 0-.9c-.1-.7-.5-1.5-.5-1.5l.7-.3s.4.9.6 1.7c.1.9 0 1.3-.1 1.3z"/><path id="XMLID_1349_" class="st2" d="M20.9 14.7c0-.1-.2-.5 0-1.3s.5-1.6.6-1.7l.7.3s-.4.8-.5 1.5c-.1.6 0 .9 0 .9l-.8.3z"/><path id="XMLID_1348_" class="st3" d="M9.8 16.7v4.2l-3.9 6.9c-.2.4-.4.9-.4 1.4 0 1.6 1.3 2.9 2.9 2.9h22.3c1.6 0 2.9-1.3 2.9-2.9v-.1c0-.5-.1-1-.4-1.4l-3.9-7.2v-3.9l-19.5.1z"/></svg>