<svg id="Layer_1" xmlns="http://www.w3.org/2000/svg" viewBox="0 0 40.7 40.7"><style>.st0{fill:#fcb23a}.st1{fill:#f7941e}</style><path id="XMLID_532_" class="st0" d="M22.9 11.3h-.2c0-.2.1-.4.1-.6 0-1.4-1.1-2.5-2.5-2.5s-2.5 1.1-2.5 2.5c0 .2 0 .4.1.6h-.1c-1.4 0-2.5 1.1-2.5 2.5s1.1 2.5 2.5 2.5 2.5-1.1 2.5-2.5c0-.2 0-.4-.1-.6h.3c0 .2-.1.4-.1.6 0 1.4 1.1 2.5 2.5 2.5s2.5-1.1 2.5-2.5-1.1-2.5-2.5-2.5zm-5.1 3.4c-.5 0-1-.4-1-1 0-.5.4-1 1-1 .5 0 1 .4 1 1-.1.6-.5 1-1 1zm2.5-3.1c-.5 0-1-.4-1-1 0-.5.4-1 1-1 .5 0 1 .4 1 1s-.5 1-1 1zm2.6 3.1c-.5 0-1-.4-1-1 0-.5.4-1 1-1s1 .4 1 1-.4 1-1 1z"/><path id="XMLID_537_" class="st0" d="M19.7 25.2v-13h1.6v13l-.2.3h-1.2z"/><path id="XMLID_538_" class="st0" d="M19.8 30.6v-5.2H21v5.2c0 .3-.3.6-.6.6s-.6-.3-.6-.6z"/><path id="XMLID_540_" class="st0" d="M17.7 25.7h.3v4.5h-.3z"/><path id="XMLID_521_" class="st1" d="M23.3 11.3h-.2c0-.2.1-.4.1-.6 0-1.4-1.1-2.5-2.5-2.5s-2.5 1.1-2.5 2.5c0 .2 0 .4.1.6h-.1c-1.4 0-2.5 1.1-2.5 2.5s1.1 2.5 2.5 2.5c.7 0 1.3-.3 1.8-.7v9.7l.2.2v5.2c0 .3.3.6.6.6s.6-.3.6-.6v-5.1l.3-.3v-9.6c.4.4 1 .6 1.7.6 1.4 0 2.5-1.1 2.5-2.5-.1-1.4-1.2-2.5-2.6-2.5zm-5.1 3.4c-.5 0-1-.4-1-1 0-.5.4-1 1-1 .5 0 1 .4 1 1-.1.6-.5 1-1 1zm2.5-3.1c-.5 0-1-.4-1-1 0-.5.4-1 1-1 .5 0 1 .4 1 1-.1.6-.5 1-1 1zm2.6 3.1c-.5 0-1-.4-1-1 0-.5.4-1 1-1s1 .4 1 1-.5 1-1 1z"/><path id="XMLID_524_" class="st1" d="M17.9 25.7h2v4.5h-2z"/><path id="XMLID_525_" class="st1" d="M17.2 26.1h.9v2.2h-.9z"/><path id="XMLID_527_" class="st1" d="M16.7 25.7h.5v4.5h-.5z"/><path id="XMLID_539_" class="st0" d="M16.5 25.7h.2v4.5h-.2z"/></svg>