<svg id="Layer_1" xmlns="http://www.w3.org/2000/svg" viewBox="0 0 40.7 40.7"><style>.st0{fill:#3d556d}.st1{fill:#59718d}.st2{fill:#fff}.st3{font-family:&apos;Cormorant-BoldItalic&apos;}.st4{font-size:13.0753px}.st5{fill:#fcb23a}.st6{fill:#f7941e}.st7{fill:#fdc065}.st8{fill:#7b6b5a}</style><path id="XMLID_1452_" class="st0" d="M31.3 10.8h4.1v22.5h-4.1z"/><path id="XMLID_1451_" class="st1" d="M34.3 24.1v9.2H20.5c-1.4 0-2.6-1.1-2.6-2.6V13.4c0-1.4 1.1-2.6 2.6-2.6h13.9v13.3z"/><text id="XMLID_1450_" transform="translate(25.356 26.185)" class="st2 st3 st4">A</text><path id="XMLID_1398_" class="st5" d="M22.8 4.9H28v28.5h-5.2z"/><path id="XMLID_1397_" class="st6" d="M27.3 21.7v11.7H9.8c-1.8 0-3.2-1.4-3.2-3.2v-22C6.6 6.4 8 5 9.8 5h17.5v16.7z"/><path id="XMLID_1287_" class="st7" d="M22.6 18.1c-.2-1.2-1-1.6-3.1-1.4-2 .2-9.5.7-9.8 1.3-.5.7-.5 3.5-.2 5 .1.7.6 1.3 1.3 1.5.1 0 .2.1.3.1 0 .2 0 .6.3 1.1.3.7 1.3 1.3 1.9 1.7.1.1.3-.1.2-.2-.3-.4-.6-1.1-.5-1.5.1-.2.1-.3.2-.4 2.1.6 4.5 1.3 5.4 1.4 1.7.1 2.4.5 3-1.6.5-2.2 1.2-5.9 1-7z"/><path id="XMLID_1286_" class="st2" d="M19.2 8.6c-3.3 0-5.8 2-5.8 4.5 0 1.9 1.2 3.3 3.3 3.9 0 .3 0 .9-.3 1.2l-.6.6v.1c.4.1 1.5.1 2.3-.6.3-.4.5-.7.6-1h.5c4.7 0 6.8-1.7 6.8-4.2s-3.4-4.5-6.8-4.5z"/><ellipse id="XMLID_1285_" class="st8" cx="17.2" cy="13.1" rx=".6" ry=".5"/><ellipse id="XMLID_1284_" class="st8" cx="19.4" cy="13.1" rx=".6" ry=".5"/><ellipse id="XMLID_1283_" class="st8" cx="21.5" cy="13.1" rx=".6" ry=".5"/><ellipse id="XMLID_1282_" class="st8" cx="13.4" cy="21.4" rx=".6" ry=".5"/><ellipse id="XMLID_1281_" class="st8" cx="15.6" cy="21.4" rx=".6" ry=".5"/><ellipse id="XMLID_1280_" class="st8" cx="17.8" cy="21.4" rx=".6" ry=".5"/></svg>