<svg id="Layer_1" xmlns="http://www.w3.org/2000/svg" viewBox="0 0 40.7 40.7"><style>.st0{fill:#fcb23a}.st1{fill:#6b5949}.st2{fill:#fff}.st3{fill:#f7941e}.st4{fill:#da8427}</style><path id="XMLID_421_" class="st0" d="M34.7 35.8H9.4c-2.3 0-4.1-1.8-4.1-4.1V11h29.3v24.8z"/><circle id="XMLID_425_" class="st1" cx="13" cy="15.5" r="1.1"/><circle id="XMLID_430_" class="st1" cx="27.1" cy="15.5" r="1.1"/><path id="XMLID_444_" class="st2" d="M20 28.9c-4.2 0-7.6-3.4-7.6-7.6v-5.9c0-.3.2-.5.5-.5s.5.2.5.5v5.9c0 3.6 3 6.6 6.6 6.6 3.6 0 6.6-3 6.6-6.6v-5.9c0-.3.2-.5.5-.5s.5.2.5.5v5.9c0 4.2-3.4 7.6-7.6 7.6z"/><path id="XMLID_422_" class="st3" d="M6.9 4.8H33V11H6.9z"/><path id="XMLID_424_" class="st4" d="M5.3 11L11 8.1V11z"/><path id="XMLID_426_" class="st0" d="M6.8 10.2V4.8L11 8.1z"/><path id="XMLID_428_" class="st4" d="M34.5 11l-5.7-2.9V11z"/><path id="XMLID_427_" class="st0" d="M33 10.2V4.8l-4.2 3.3z"/></svg>