<svg id="Layer_1" xmlns="http://www.w3.org/2000/svg" viewBox="0 0 40.7 40.7"><style>.st0{fill:#f7941e}.st1{fill:#f1f2f2}.st2{fill:#fcb23a}.st3{fill:#d1d3d4}.st4{fill:#6b5949}</style><path id="XMLID_174_" class="st0" d="M10.6 11.4H31v2.9H10.6z"/><path id="XMLID_175_" class="st1" d="M10.6 14.3l-1.9 15h20.6l1.7-15z"/><path id="XMLID_184_" class="st2" d="M31 11.4h1.1v2.9H31z"/><path id="XMLID_185_" class="st3" d="M32.1 14.3v15h-2.8l1.7-15z"/><path id="XMLID_193_" class="st3" d="M15.4 19.7h-1.8l.2-1.9h1.8z"/><path id="XMLID_200_" class="st3" d="M18 19.7h-1.8l.2-1.9h1.8z"/><path id="XMLID_221_" class="st3" d="M20.7 19.7h-1.8l.2-1.9h1.8z"/><path id="XMLID_220_" class="st3" d="M23.3 19.7h-1.8l.2-1.9h1.8z"/><path id="XMLID_227_" class="st0" d="M26.1 19.7h-1.8l.2-1.9h1.8z"/><path id="XMLID_216_" class="st3" d="M15 22.4h-1.8l.3-1.8h1.8z"/><path id="XMLID_215_" class="st0" d="M17.6 22.4h-1.8l.3-1.8h1.8z"/><path id="XMLID_214_" class="st3" d="M20.3 22.4h-1.8l.3-1.8h1.8z"/><path id="XMLID_213_" class="st3" d="M22.9 22.4h-1.8l.3-1.8h1.8z"/><path id="XMLID_208_" class="st0" d="M25.8 22.4H24l.2-1.8H26z"/><path id="XMLID_223_" class="st3" d="M14.7 25.2h-1.8l.2-1.9h1.8z"/><path id="XMLID_222_" class="st3" d="M17.3 25.2h-1.8l.2-1.9h1.8z"/><path id="XMLID_219_" class="st3" d="M20 25.2h-1.8l.2-1.9h1.8z"/><path id="XMLID_218_" class="st3" d="M22.6 25.2h-1.8l.2-1.9h1.8z"/><path id="XMLID_217_" class="st0" d="M25.4 25.2h-1.8l.2-1.9h1.8z"/><path id="XMLID_376_" class="st4" d="M14.8 15.6H14l.2-1.3h.8z"/><path id="XMLID_353_" class="st4" d="M14.2 13.2h.8v1.1h-.8z"/><path id="XMLID_238_" class="st4" d="M26.6 15.6h-.7l.2-1.3h.7z"/><path id="XMLID_234_" class="st4" d="M26.1 13.2h.8v1.1h-.8z"/></svg>