<svg id="Layer_1" xmlns="http://www.w3.org/2000/svg" viewBox="0 0 40.7 40.7"><style>.st0{fill:#fcb23a}.st1{fill:#f7941e}</style><path id="XMLID_597_" class="st0" d="M33.9 15.8l-7.8-1.1-3.5-7.1c-.3-.5-.8-.8-1.3-.8h-2.2v1.9h.4l-2.9 6-7.8 1.1c-1.2.2-1.6 1.6-.8 2.4l5.6 5.5-1.3 7.5h-.7v1.9h2.2c.2 0 .3-.1.5-.1l7-3.7 5.5 2.9v1H29c.8 0 1.5-.8 1.3-1.7L29 23.7l5.6-5.5c1-.8.5-2.2-.7-2.4z"/><path id="XMLID_578_" class="st1" d="M20.6 7.6l3.5 7.1 7.8 1.1c1.2.2 1.6 1.6.8 2.4L27 23.7l1.3 7.8c.2 1.2-1 2.1-2.1 1.5l-7-3.7-7 3.7c-1 .6-2.3-.3-2.1-1.5l1.3-7.8-5.6-5.5c-.8-.8-.4-2.3.8-2.4l7.8-1.1L18 7.6c.5-1.1 2-1.1 2.6 0z"/></svg>